<?xml version="1.0" encoding="UTF-8"?>
<!DOCTYPE svg PUBLIC "-//W3C//DTD SVG 1.1//EN" "http://www.w3.org/Graphics/SVG/1.1/DTD/svg11.dtd">
<!-- Creator: CorelDRAW X8 -->
<svg xmlns="http://www.w3.org/2000/svg" xml:space="preserve" width="15.7941in" height="11.9552in" version="1.1" shape-rendering="geometricPrecision" text-rendering="geometricPrecision" image-rendering="optimizeQuality" fill-rule="evenodd" clip-rule="evenodd"
viewBox="0 0 16295 12335"
 xmlns:xlink="http://www.w3.org/1999/xlink">
 <g id="Layer_x0020_1">
  <metadata id="CorelCorpID_0Corel-Layer"/>
  <g id="_2312622070160">
   <g>
    <g>
     <g>
      <g>
       <path fill="#2F2A31" fill-rule="nonzero" d="M1 10762c6,-102 1676,-3593 1941,-4099 33,-63 76,-131 127,-180 35,-34 262,-115 290,-78 305,409 355,1988 254,2480 -114,551 -1085,2205 -1157,2249 -456,281 -1488,30 -1455,-372z"/>
      </g>
     </g>
    </g>
    <g>
     <g>
      <g>
       <path fill="#2F2A31" fill-rule="nonzero" d="M8629 10762c-6,-102 -1676,-3593 -1941,-4099 -33,-63 -76,-131 -127,-180 -35,-34 -262,-115 -290,-78 -306,409 -356,1988 -254,2480 114,551 1084,2205 1156,2249 457,281 1488,30 1456,-372z"/>
      </g>
     </g>
    </g>
    <path fill="black" fill-rule="nonzero" d="M2428 7052l0 -4094c0,-628 515,-1142 1143,-1142l1293 0c629,0 1143,514 1143,1142l0 4094c0,629 -3579,629 -3579,0z"/>
    <g>
     <g>
      <g>
       <path fill="#EFC6AC" fill-rule="nonzero" d="M5521 6651c0,438 -813,2172 -1244,2172 -432,0 -1206,-1734 -1206,-2172 0,-438 549,-361 1225,-361 677,0 1225,-77 1225,361z"/>
      </g>
      <g>
       <g>
        <g>
         <path fill="#EFC6AC" fill-rule="nonzero" d="M4301 7479c-457,0 -1002,-342 -1002,-830l384 -1444c0,-485 1236,-485 1236,0l383 1444c0,488 -544,830 -1001,830z"/>
        </g>
       </g>
      </g>
      <g>
       <g>
        <g>
         <path fill="#C88260" fill-rule="nonzero" d="M3719 5965c582,195 922,178 1328,-275l-128 -485c0,-485 -1236,-485 -1236,0l-295 1109c89,-221 108,-424 331,-349z"/>
        </g>
       </g>
      </g>
     </g>
    </g>
    <g>
     <path fill="#E1E8ED" fill-rule="nonzero" d="M5947 11932c34,-323 189,-1758 233,-2027 54,-321 464,-1235 291,-2129 0,0 109,-772 58,-1125 -394,-425 -860,-534 -1408,-712l76 734c-110,515 -880,1111 -880,1111 0,0 -787,-620 -905,-1142l68 -703c-547,178 -1014,287 -1408,712 -51,353 59,1125 59,1125 -176,746 237,1808 290,2130 45,268 199,1703 234,2026l3292 0z"/>
    </g>
    <g>
     <g>
      <path fill="#EFC6AC" fill-rule="nonzero" d="M5489 4737c150,-50 302,-100 435,-185 133,-85 248,-208 292,-359 44,-152 6,-332 -117,-431 -123,-99 -308,-69 -420,42 -53,54 -282,963 -190,933z"/>
      <path fill="#EFC6AC" fill-rule="nonzero" d="M3053 4737c-150,-50 -302,-100 -435,-185 -133,-85 -248,-208 -292,-359 -44,-152 -6,-332 117,-431 123,-99 308,-69 420,42 53,54 282,963 190,933z"/>
     </g>
     <g>
      <path fill="#EFC6AC" fill-rule="nonzero" d="M4420 1485c-26,-1 -272,-1 -298,0 -793,38 -1541,172 -1425,1415 0,0 124,1426 193,1703 35,140 128,272 209,389 124,177 267,343 430,487 199,176 437,327 707,327 251,0 440,-72 627,-207 187,-134 349,-304 489,-485 108,-137 215,-288 280,-452 8,-19 15,-39 20,-59 69,-277 193,-1703 193,-1703 116,-1243 -632,-1377 -1425,-1415z"/>
      <path fill="#E2A780" fill-rule="nonzero" d="M4271 5744c-579,-24 -1055,-569 -1224,-1100 -60,-181 -109,-535 -73,-712 57,-287 601,-958 946,-1226 346,-267 709,-378 1107,-408 253,-18 362,728 818,604 0,-1 0,-2 0,-2 116,-1243 -632,-1377 -1425,-1415 -26,-1 -272,-1 -298,0 -793,38 -1541,172 -1425,1415 0,0 124,1426 193,1703 35,140 128,272 209,389 124,177 267,343 430,487 199,176 437,327 707,327 251,0 440,-72 627,-207 83,-59 161,-126 234,-197 -377,287 -742,354 -826,342z"/>
     </g>
    </g>
    <g>
     <g>
      <g>
       <g>
        <path fill="#F9704D" fill-rule="nonzero" d="M4289 3605c0,0 -166,527 -135,619 52,159 311,107 311,107 0,0 -176,-62 -176,-176 0,-114 0,-550 0,-550z"/>
       </g>
      </g>
     </g>
     <g>
      <g>
       <path fill="black" fill-rule="nonzero" d="M3285 3229c3,-3 6,-5 9,-8 152,-137 326,-185 503,-134 15,4 31,10 44,31 26,41 29,87 28,154 -205,-98 -413,-89 -604,28 -6,-22 -4,-24 2,-42 5,-13 11,-22 18,-29z"/>
      </g>
     </g>
     <g>
      <g>
       <path fill="black" fill-rule="nonzero" d="M5307 3229c-3,-3 -5,-5 -8,-8 -152,-137 -327,-185 -503,-134 -15,4 -32,10 -45,31 -25,41 -29,87 -28,154 206,-98 413,-89 604,28 7,-22 5,-24 -2,-42 -4,-13 -11,-22 -18,-29z"/>
      </g>
     </g>
     <g>
      <path fill="black" fill-rule="nonzero" d="M3769 3599c0,-94 -68,-170 -151,-170 -83,0 -150,76 -150,170 0,7 0,36 0,43l0 135c0,93 74,125 150,125 77,0 151,-32 151,-125l0 -135c0,-7 0,-36 0,-43z"/>
      <path fill="white" fill-rule="nonzero" d="M3714 3591c0,8 -6,14 -13,14 -8,0 -14,-6 -14,-14 0,-7 6,-13 14,-13 7,0 13,6 13,13z"/>
     </g>
     <g>
      <path fill="black" fill-rule="nonzero" d="M5147 3599c0,-94 -68,-170 -151,-170 -83,0 -150,76 -150,170 0,7 0,36 0,43l0 135c0,93 74,125 150,125 77,0 151,-32 151,-125l0 -135c0,-7 0,-36 0,-43z"/>
      <path fill="white" fill-rule="nonzero" d="M5092 3591c0,8 -6,14 -13,14 -8,0 -14,-6 -14,-14 0,-7 6,-13 14,-13 7,0 13,6 13,13z"/>
     </g>
     <g>
      <g>
       <path fill="white" fill-rule="nonzero" d="M3705 4339c0,0 378,67 607,56 228,-10 632,-56 632,-56 40,0 -183,596 -614,600 -428,5 -652,-600 -625,-600z"/>
      </g>
     </g>
    </g>
    <path fill="black" fill-rule="nonzero" d="M2466 3732c0,0 200,148 445,11 150,-84 271,-208 370,-349 174,-249 331,-512 533,-739 203,-227 462,-418 762,-472 237,-43 500,17 677,173 40,200 80,400 119,599 32,157 134,460 228,589 94,130 257,213 407,158 0,0 329,-1954 -726,-2073 0,0 -162,-270 -646,-431 -635,-210 -2023,-135 -2242,1070 -164,905 73,1464 73,1464z"/>
    <g>
     <path fill="#2F2A31" fill-rule="nonzero" d="M6292 11932c-90,-294 -152,-579 -152,-807 0,-165 36,-628 205,-1191 120,-397 415,-843 447,-1268 24,-327 -140,-642 -221,-912 0,0 35,-782 -16,-1138 -399,-430 -886,-499 -1434,-677l76 734c-110,515 -606,4235 -943,4235 -337,0 -724,-3744 -842,-4266l68 -703c-547,178 -1035,247 -1433,677 -52,356 -17,1138 -17,1138 -79,278 -243,593 -220,919 32,432 328,881 449,1281 176,579 226,1054 226,1223 0,231 -53,492 -131,755l3938 0z"/>
    </g>
    <g>
     <path fill="#1C1A1F" fill-rule="nonzero" d="M2654 10941c-18,-143 -87,-529 78,-556 481,-79 781,-61 1267,-61 -35,-146 -70,-313 -104,-494 -751,-104 -1639,-104 -1913,-855 -97,-305 5,-773 64,-1097 0,-66 -16,-124 -16,-124 -79,278 -243,593 -220,919 32,432 328,881 449,1281 176,579 226,1054 226,1223 0,231 -53,492 -131,755l144 0c113,-305 204,-610 156,-991z"/>
     <path fill="#1C1A1F" fill-rule="nonzero" d="M6069 11412c25,168 63,341 113,520l110 0c-90,-294 -152,-579 -152,-807 0,-165 36,-628 205,-1191 120,-397 415,-843 447,-1268 18,-235 -62,-464 -139,-674 38,449 147,1018 -202,1421 -439,512 -1157,370 -1796,366 -42,199 -85,382 -128,541 417,19 1001,-21 1381,180 249,138 68,297 161,912z"/>
    </g>
    <g>
     <path fill="#EDF2F4" fill-rule="nonzero" d="M4419 7704c259,-172 561,-358 857,-263 232,75 160,297 267,504 -66,-490 83,-979 5,-1468 -21,-134 -44,-272 -113,-389 -69,-116 -196,-209 -331,-197 0,0 72,665 28,808 -44,142 -803,1065 -713,1005z"/>
     <path fill="#EDF2F4" fill-rule="nonzero" d="M4195 7686c-260,-172 -573,-358 -869,-262 -232,74 -160,296 -266,504 65,-490 -84,-979 -6,-1469 21,-133 44,-271 113,-388 69,-117 196,-209 331,-197 0,0 -72,665 -28,808 44,142 815,1064 725,1004z"/>
    </g>
    <g>
     <g>
      <path fill="#EFC6AC" fill-rule="nonzero" d="M7694 9916c725,282 923,735 847,932 -98,256 -694,448 -893,370 -398,-156 -3148,-1178 -3148,-1178 -82,0 -145,-219 -133,-283 32,-175 111,-260 111,-260 1006,136 2435,307 3216,419z"/>
     </g>
    </g>
    <g>
     <g>
      <path fill="#EFC6AC" fill-rule="nonzero" d="M936 9916c-725,282 -924,735 -848,932 99,256 694,448 893,370 398,-156 3087,-1178 3087,-1178 82,0 146,-219 134,-283 -33,-175 -51,-260 -51,-260 -1005,136 -2434,307 -3215,419z"/>
     </g>
    </g>
    <g>
     <g>
      <g>
       <path fill="#C88260" fill-rule="nonzero" d="M4245 9497c0,0 35,-996 31,-1069 -3,-73 -141,-15 -154,124 -12,139 21,865 123,945z"/>
      </g>
      <g>
       <path fill="#C88260" fill-rule="nonzero" d="M4181 9275c0,0 60,-1105 106,-1339 52,-264 -148,-398 -168,-185 -20,213 -177,1436 -180,1492 -3,55 174,210 242,32z"/>
      </g>
      <g>
       <path fill="#E2A780" fill-rule="nonzero" d="M4108 9352c0,0 14,-1199 84,-1437 45,-151 -63,-345 -131,-126 -36,117 -188,900 -278,1320 -70,325 145,694 143,726 0,0 123,-297 182,-483z"/>
      </g>
      <g>
       <g>
        <path fill="#EFC6AC" fill-rule="nonzero" d="M4064 10075c-207,68 -301,-12 -302,-268 -1,-256 353,-1600 355,-1769 1,-168 134,-3 126,145 -8,147 -64,728 -26,927 39,198 74,890 -153,965z"/>
       </g>
      </g>
     </g>
     <g>
      <g>
       <path fill="#C88260" fill-rule="nonzero" d="M4290 9497c0,0 -34,-996 -31,-1069 3,-73 141,-15 154,124 12,139 -20,865 -123,945z"/>
      </g>
      <g>
       <path fill="#C88260" fill-rule="nonzero" d="M4355 9275c0,0 -61,-1105 -107,-1339 -52,-264 148,-398 168,-185 20,213 177,1436 180,1492 3,55 -173,210 -241,32z"/>
      </g>
      <g>
       <path fill="#E2A780" fill-rule="nonzero" d="M4428 9352c0,0 -15,-1199 -85,-1437 -45,-151 63,-345 131,-126 36,117 188,900 278,1320 70,325 -145,694 -143,726 0,0 -122,-297 -181,-483z"/>
      </g>
      <g>
       <g>
        <path fill="#EFC6AC" fill-rule="nonzero" d="M4471 10075c207,68 301,-12 302,-268 1,-256 -353,-1600 -354,-1769 -2,-168 -134,-3 -126,145 8,147 63,728 25,927 -38,198 -74,890 153,965z"/>
       </g>
      </g>
     </g>
    </g>
   </g>
   <g>
    <g>
     <path fill="#2F2A31" fill-rule="nonzero" d="M8275 11366c75,-200 533,-2191 708,-2671 175,-480 300,-883 342,-1173 67,-466 -508,-1405 -833,-1425 -326,-21 -804,988 -904,1351 -123,445 -723,2471 -924,3439 -152,734 1266,1394 1611,479z"/>
    </g>
    <g>
     <g>
      <g>
       <path fill="#EFC6AC" fill-rule="nonzero" d="M12676 5636c0,423 -785,2099 -1202,2099 -417,0 -1165,-1676 -1165,-2099 0,-424 530,-349 1184,-349 653,0 1183,-75 1183,349z"/>
      </g>
      <g>
       <g>
        <g>
         <path fill="#EFC6AC" fill-rule="nonzero" d="M11497 6436c-442,0 -968,-331 -968,-803l371 -1395c0,-468 1194,-468 1194,0l370 1395c0,472 -526,803 -967,803z"/>
        </g>
       </g>
      </g>
      <g>
       <g>
        <g>
         <path fill="#C88260" fill-rule="nonzero" d="M10935 4973c562,188 891,171 1283,-266l-124 -469c0,-468 -1194,-468 -1194,0l-285 1072c86,-214 104,-409 320,-337z"/>
        </g>
       </g>
      </g>
     </g>
    </g>
    <g>
     <path fill="#E1E8ED" fill-rule="nonzero" d="M14067 8930c227,-742 346,-1495 501,-2254 29,-139 -32,-281 -152,-351 -656,-387 -1548,-901 -2124,-1305 0,0 205,694 -61,1005 -294,343 -506,504 -742,555 -236,-51 -449,-212 -743,-555 -266,-311 -61,-1005 -61,-1005 -576,404 -1467,918 -2123,1305 -120,70 -181,212 -153,351 156,759 275,1512 502,2254 -71,956 69,2040 9,3002l5081 0c-59,-965 137,-2041 66,-3002z"/>
    </g>
    <g>
     <path fill="#EDF2F4" fill-rule="nonzero" d="M11611 6653c251,-166 382,-133 382,-133 0,0 212,365 315,565 156,-431 469,-1145 394,-1618 -20,-129 -429,-566 -429,-566 0,0 70,643 27,781 -42,138 -776,1029 -689,971z"/>
     <path fill="#EDF2F4" fill-rule="nonzero" d="M11395 6636c-251,-166 -421,-165 -421,-165l-329 481c0,0 -428,-1029 -353,-1501 21,-130 420,-550 420,-550 0,0 -61,627 -18,764 43,138 788,1029 701,971z"/>
    </g>
    <path fill="#E6524B" fill-rule="nonzero" d="M12298 11932l-539 -4768 163 -533 -55 -135c0,0 -237,-40 -370,-40 -133,0 -368,33 -368,33l-57 142 163 533 -539 4768 1602 0z"/>
    <g>
     <path fill="#2F2A31" fill-rule="nonzero" d="M14673 11366c-75,-200 -533,-2191 -708,-2671 -174,-480 -300,-883 -341,-1173 -67,-466 510,-1378 832,-1425 405,-60 778,903 878,1266 123,445 749,2556 950,3524 152,734 -1266,1394 -1611,479z"/>
    </g>
    <g>
     <g>
      <g>
       <path fill="#EFC6AC" fill-rule="nonzero" d="M12646 3786c144,-48 291,-96 419,-179 129,-82 240,-201 283,-347 43,-146 6,-321 -113,-416 -119,-96 -298,-67 -406,41 -52,52 -273,930 -183,901z"/>
       <path fill="#EFC6AC" fill-rule="nonzero" d="M10291 3786c-145,-48 -291,-96 -420,-179 -128,-82 -239,-201 -282,-347 -43,-146 -6,-321 113,-416 118,-96 298,-67 405,41 52,52 273,930 184,901z"/>
      </g>
      <g>
       <path fill="#EFC6AC" fill-rule="nonzero" d="M11612 644c-25,-1 -263,-1 -288,0 -766,37 -1489,166 -1377,1367 0,0 120,1378 187,1645 34,136 123,264 202,376 119,172 258,332 415,471 192,170 422,316 683,316 243,0 425,-70 607,-200 180,-130 336,-293 472,-468 104,-133 208,-279 270,-437 8,-19 15,-38 20,-58 67,-267 187,-1645 187,-1645 112,-1201 -612,-1330 -1378,-1367z"/>
       <path fill="#E2A780" fill-rule="nonzero" d="M11468 4759c-559,-23 -1019,-550 -1182,-1063 -59,-175 -105,-516 -71,-688 55,-277 525,-522 722,-895 268,-511 779,-183 1262,-296 238,-56 349,316 790,196 1,-1 1,-2 1,-2 112,-1201 -612,-1330 -1378,-1367 -25,-1 -263,-1 -288,0 -766,37 -1489,166 -1377,1367 0,0 120,1378 187,1645 34,136 123,264 202,376 119,172 258,332 415,471 192,170 422,316 683,316 243,0 425,-70 607,-200 79,-57 154,-121 225,-190 -364,277 -716,342 -798,330z"/>
      </g>
     </g>
     <g>
      <g>
       <g>
        <g>
         <path fill="#F9704D" fill-rule="nonzero" d="M11521 2692c0,0 161,509 131,599 -50,153 -301,103 -301,103 0,0 170,-60 170,-170 0,-110 0,-532 0,-532z"/>
        </g>
       </g>
      </g>
      <g>
       <g>
        <path fill="black" fill-rule="nonzero" d="M10522 2427c2,-3 5,-6 7,-9 132,-147 294,-211 469,-181 15,3 32,7 47,26 28,37 37,81 42,145 -207,-73 -406,-43 -577,89 -9,-20 -7,-22 -3,-40 4,-14 9,-23 15,-30z"/>
       </g>
      </g>
      <g>
       <g>
        <path fill="black" fill-rule="nonzero" d="M12463 2428c-2,-3 -5,-5 -7,-8 -131,-149 -293,-213 -468,-184 -16,3 -32,6 -47,25 -29,37 -37,81 -44,145 208,-72 407,-40 578,93 8,-21 6,-23 2,-41 -3,-13 -8,-22 -14,-30z"/>
       </g>
      </g>
      <g>
       <path fill="black" fill-rule="nonzero" d="M10983 2686c0,-90 -65,-164 -146,-164 -80,0 -145,74 -145,164 0,7 0,35 0,42l0 130c0,90 71,121 145,121 74,0 146,-31 146,-121l0 -130c0,-7 0,-35 0,-42z"/>
       <path fill="white" fill-rule="nonzero" d="M10930 2679c0,7 -6,13 -13,13 -7,0 -13,-6 -13,-13 0,-7 6,-13 13,-13 7,0 13,6 13,13z"/>
      </g>
      <g>
       <path fill="black" fill-rule="nonzero" d="M12315 2686c0,-90 -66,-164 -146,-164 -80,0 -146,74 -146,164 0,7 0,35 0,42l0 130c0,90 72,121 146,121 74,0 146,-31 146,-121l0 -130c0,-7 0,-35 0,-42z"/>
       <path fill="white" fill-rule="nonzero" d="M12262 2679c0,7 -6,13 -13,13 -7,0 -13,-6 -13,-13 0,-7 6,-13 13,-13 7,0 13,6 13,13z"/>
      </g>
      <g>
       <g>
        <path fill="white" fill-rule="nonzero" d="M10922 3402c0,0 365,64 586,54 220,-10 610,-54 610,-54 39,0 -177,575 -592,580 -414,4 -630,-580 -604,-580z"/>
       </g>
      </g>
     </g>
     <path fill="black" fill-rule="nonzero" d="M10528 2269c188,-46 312,-93 402,-231 121,-185 36,-382 197,-426 256,-69 740,217 970,89 49,-27 91,-66 123,-111 49,86 123,165 195,234 131,126 274,270 273,449 -1,110 -57,211 -91,315 -64,199 128,814 128,814 121,-64 152,-378 199,-506 54,-148 41,-313 84,-464 46,-163 154,-305 194,-469 46,-187 -8,-394 -134,-542 16,-91 24,-184 20,-277 -9,-197 -82,-400 -233,-530 -135,-116 -338,-162 -501,-96 -263,-279 -576,-537 -951,-517 -338,18 -615,259 -932,375 -186,68 -385,93 -573,156 -187,64 -371,179 -444,360 -36,91 -31,199 8,289 -55,39 -99,96 -117,160 -40,141 11,291 73,423 63,133 396,289 411,435 18,164 210,1097 271,1097 61,0 151,-997 151,-997 31,6 217,-15 277,-30z"/>
    </g>
    <path fill="#2F2A31" fill-rule="nonzero" d="M8870 11932c29,-467 11,-971 -7,-1460 -19,-514 -470,-3609 -567,-4070 -23,-106 26,-215 120,-269 159,-92 335,-192 519,-296 597,-337 1367,-639 1783,-953l-154 466c-76,228 -101,469 -76,707l297 2767c0,0 486,2350 704,2401 218,-51 704,-2401 704,-2401l303 -2787c26,-242 0,-487 -78,-718l-149 -444c416,314 1177,625 1774,962 184,104 360,204 519,296 94,54 143,163 120,269 -97,461 -563,3554 -596,4065 -31,489 -64,995 -35,1465l-5181 0z"/>
    <path fill="#1C1A1F" fill-rule="nonzero" d="M9064 11932c15,-81 26,-162 26,-239 25,-1280 -251,-2510 -352,-3790 -21,-234 -132,-467 -302,-654 169,1097 413,2848 427,3223 18,489 36,993 7,1460l194 0z"/>
    <path fill="#1C1A1F" fill-rule="nonzero" d="M14555 7144c-340,387 -434,928 -495,1436 -100,904 -153,1600 -153,2504 0,228 31,539 57,848l87 0c-29,-470 4,-976 35,-1465 25,-385 296,-2237 469,-3323z"/>
    <g>
     <path fill="#EFC6AC" fill-rule="nonzero" d="M11854 9999l822 404 325 -898 -1011 -424c0,0 -254,838 -136,918z"/>
     <g>
      <path fill="#2F2A31" fill-rule="nonzero" d="M15674 10318c0,0 -2119,-774 -3193,-1278 -311,-32 -571,1294 -351,1413 220,118 1499,690 2826,1275 617,273 1232,-1134 718,-1410z"/>
     </g>
    </g>
    <g>
     <path fill="#EFC6AC" fill-rule="nonzero" d="M11094 9999l-822 404 -325 -898 1011 -424c0,0 254,838 136,918z"/>
     <g>
      <path fill="#2F2A31" fill-rule="nonzero" d="M7274 10318c0,0 2119,-774 3194,-1278 310,-32 570,1294 350,1413 -220,118 -1499,690 -2825,1275 -618,273 -1233,-1134 -719,-1410z"/>
     </g>
    </g>
    <g>
     <g>
      <g>
       <path fill="#C88260" fill-rule="nonzero" d="M11442 9302c0,0 40,-1167 36,-1252 -4,-86 -166,-17 -181,145 -14,163 24,1013 145,1107z"/>
      </g>
      <g>
       <path fill="#C88260" fill-rule="nonzero" d="M11366 9041c0,0 70,-1293 124,-1567 61,-309 -173,-467 -197,-217 -23,249 -206,1681 -210,1747 -4,65 203,246 283,37z"/>
      </g>
      <g>
       <path fill="#E2A780" fill-rule="nonzero" d="M11280 9132c0,0 17,-1404 99,-1682 53,-177 -74,-405 -153,-148 -42,137 -220,1054 -326,1545 -81,381 170,813 168,851 0,0 143,-348 212,-566z"/>
      </g>
      <g>
       <g>
        <path fill="#EFC6AC" fill-rule="nonzero" d="M11229 9978c-243,80 -352,-13 -353,-313 -2,-300 413,-1874 415,-2071 2,-198 156,-4 147,169 -9,173 -74,852 -29,1085 44,233 86,1043 -180,1130z"/>
       </g>
      </g>
     </g>
     <g>
      <g>
       <path fill="#C88260" fill-rule="nonzero" d="M11493 9302c0,0 -40,-1167 -36,-1252 4,-86 166,-17 181,145 14,163 -24,1013 -145,1107z"/>
      </g>
      <g>
       <path fill="#C88260" fill-rule="nonzero" d="M11569 9041c0,0 -70,-1293 -124,-1567 -61,-309 173,-467 197,-217 23,249 206,1681 210,1747 4,65 -203,246 -283,37z"/>
      </g>
      <g>
       <path fill="#E2A780" fill-rule="nonzero" d="M11655 9132c0,0 -17,-1404 -99,-1682 -53,-177 74,-405 153,-148 42,137 220,1054 326,1545 81,381 -170,813 -168,851 0,0 -143,-348 -212,-566z"/>
      </g>
      <g>
       <g>
        <path fill="#EFC6AC" fill-rule="nonzero" d="M11706 9978c242,80 352,-13 353,-313 2,-300 -413,-1874 -415,-2071 -2,-198 -157,-4 -147,169 9,173 74,852 29,1085 -44,233 -86,1043 180,1130z"/>
       </g>
      </g>
     </g>
    </g>
   </g>
   <path fill="#2F2A31" fill-rule="nonzero" d="M14981 12335l-14066 0c-53,0 -96,-91 -96,-201l0 -1c0,-110 43,-201 96,-201l14066 0c53,0 96,91 96,201l0 1c0,110 -43,201 -96,201z"/>
  </g>
 </g>
</svg>
