<?xml version="1.0" encoding="UTF-8"?>
<!DOCTYPE svg PUBLIC "-//W3C//DTD SVG 1.1//EN" "http://www.w3.org/Graphics/SVG/1.1/DTD/svg11.dtd">
<!-- Creator: CorelDRAW X8 -->
<svg xmlns="http://www.w3.org/2000/svg" xml:space="preserve" width="4.99716in" height="3.61946in" version="1.1" shape-rendering="geometricPrecision" text-rendering="geometricPrecision" image-rendering="optimizeQuality" fill-rule="evenodd" clip-rule="evenodd"
viewBox="0 0 2893 2096"
 xmlns:xlink="http://www.w3.org/1999/xlink">
 <g id="Layer_x0020_1">
  <metadata id="CorelCorpID_0Corel-Layer"/>
  <g id="_2703689555248">
   <g>
    <g>
     <path fill="#88E38C" fill-rule="nonzero" d="M1435 2078c37,-233 173,-450 366,-586 193,-136 442,-190 675,-147 -43,230 -183,442 -373,579 -190,137 -437,187 -668,154z"/>
     <g>
      <path fill="#64D462" fill-rule="nonzero" d="M1443 2074c-2,0 -3,-1 -4,-3 -1,-2 0,-4 2,-5 369,-175 710,-412 1014,-704 2,-1 4,-1 6,0 2,2 1,4 0,6 -305,293 -647,530 -1016,705 -1,0 -2,1 -2,1z"/>
      <path fill="#64D462" fill-rule="nonzero" d="M2305 1570c-21,0 -43,-2 -63,-5 -2,-1 -4,-3 -4,-5 1,-2 3,-4 5,-3 45,8 93,7 138,-3 3,-1 5,1 5,3 1,2 -1,4 -3,5 -26,5 -52,8 -78,8z"/>
      <path fill="#64D462" fill-rule="nonzero" d="M2234 1720c-53,0 -106,-9 -156,-27 -2,-1 -3,-3 -2,-5 1,-2 3,-3 5,-3 59,21 123,30 185,25 2,0 4,2 4,4 0,2 -1,4 -3,5 -11,0 -22,1 -33,1z"/>
      <path fill="#64D462" fill-rule="nonzero" d="M2143 1842c0,0 0,0 0,0 -75,0 -150,-14 -220,-42 -2,-1 -3,-3 -3,-5 1,-2 4,-3 6,-2 69,27 143,41 217,41 3,0 4,1 4,4 0,2 -1,4 -4,4z"/>
      <path fill="#64D462" fill-rule="nonzero" d="M1944 1974c0,0 -1,0 -1,0 -63,-10 -125,-35 -178,-72 -2,-1 -2,-4 -1,-6 1,-2 4,-2 6,-1 52,36 112,61 175,71 2,0 3,2 3,4 0,2 -2,4 -4,4z"/>
      <path fill="#64D462" fill-rule="nonzero" d="M2138 1645c0,0 0,0 0,0 -2,0 -4,-2 -4,-4 4,-87 24,-173 58,-255 1,-3 3,-4 5,-3 2,1 3,4 2,6 -33,81 -53,166 -57,253 0,2 -2,3 -4,3z"/>
      <path fill="#64D462" fill-rule="nonzero" d="M1956 1778c-1,0 -1,0 -1,0 -2,-1 -4,-3 -4,-5 10,-121 38,-240 82,-353 1,-2 3,-4 5,-3 2,1 3,3 3,6 -45,112 -72,230 -81,351 -1,2 -2,4 -4,4z"/>
      <path fill="#64D462" fill-rule="nonzero" d="M1788 1885c-2,0 -3,-2 -4,-4 -6,-125 16,-251 63,-366 1,-3 3,-4 5,-3 3,1 3,4 3,6 -47,114 -69,239 -63,362 1,3 -1,4 -3,5 0,0 0,0 -1,0z"/>
      <path fill="#64D462" fill-rule="nonzero" d="M1634 1975c-2,0 -3,-1 -4,-3 -15,-95 -11,-194 12,-287 1,-2 3,-3 5,-3 2,1 3,3 3,5 -23,92 -27,190 -12,283 0,3 -1,5 -3,5 0,0 -1,0 -1,0z"/>
      <path fill="#64D462" fill-rule="nonzero" d="M1714 2042c-1,0 -1,0 -1,0 -39,-9 -75,-27 -106,-53 -1,-2 -2,-4 0,-6 1,-2 4,-2 6,0 29,25 64,43 102,51 2,1 3,3 3,5 -1,2 -2,3 -4,3z"/>
     </g>
    </g>
    <g>
     <path fill="#B0F2C7" fill-rule="nonzero" d="M1074 2069c-18,-17 -29,-42 -41,-64 -22,-38 -38,-80 -50,-123 -8,-30 -12,-65 7,-90 3,11 9,24 18,32 9,8 25,9 31,-1 7,-12 -3,-26 -11,-37 -25,-31 -39,-70 -39,-110 0,-40 14,-80 39,-111 5,10 11,20 21,25 11,6 26,3 30,-7 5,-12 -6,-24 -14,-34 -19,-25 -20,-60 -11,-90 9,-30 28,-56 46,-81 14,-20 35,-43 58,-36 15,4 23,18 31,31 15,27 29,55 42,84 7,16 14,33 15,50 2,18 -3,37 -15,49 -7,7 -17,13 -18,22 -2,15 18,23 31,17 13,-7 19,-22 24,-35 43,57 41,144 -3,200 -6,7 -13,16 -11,25 2,13 20,18 32,12 11,-6 18,-18 24,-30 22,113 -26,235 -120,301 -25,17 -52,30 -83,21 -13,-3 -24,-11 -33,-20z"/>
     <path fill="#64D462" fill-rule="nonzero" d="M1128 2096c0,0 0,0 0,0 -3,-1 -4,-3 -4,-5 42,-238 50,-481 23,-722 0,-2 2,-4 4,-4 2,0 4,1 4,4 27,241 19,484 -23,723 0,2 -2,4 -4,4z"/>
    </g>
    <g>
     <path fill="#B0F2C7" fill-rule="nonzero" d="M2035 2040c17,-25 24,-58 32,-87 16,-52 24,-106 27,-160 1,-39 -3,-82 -33,-106 0,14 -4,31 -12,43 -9,11 -28,17 -38,7 -12,-12 -3,-32 4,-47 22,-44 27,-95 17,-143 -11,-47 -38,-91 -76,-121 -4,13 -8,26 -19,35 -11,10 -30,11 -37,-1 -9,-13 1,-30 8,-44 16,-35 8,-77 -11,-110 -19,-34 -48,-60 -77,-86 -22,-20 -53,-41 -79,-26 -16,8 -23,27 -28,44 -11,37 -21,74 -28,112 -5,21 -8,43 -5,64 3,22 13,43 31,54 10,7 24,11 28,23 6,16 -16,32 -33,27 -18,-4 -29,-20 -39,-35 -36,79 -10,183 57,238 9,8 20,16 21,28 0,16 -20,26 -35,22 -16,-4 -27,-17 -37,-29 3,140 93,274 224,327 34,14 69,23 104,4 15,-8 26,-19 34,-33z"/>
     <path fill="#64D462" fill-rule="nonzero" d="M1976 2085c-2,0 -3,0 -4,-2 -113,-275 -187,-564 -220,-859 0,-2 2,-4 4,-4 2,0 4,1 4,3 33,295 107,583 220,857 1,2 0,4 -2,5 -1,0 -1,0 -2,0z"/>
    </g>
    <g>
     <path fill="#88E38C" fill-rule="nonzero" d="M1977 2084c-74,-185 -71,-400 10,-582 80,-183 236,-330 423,-400 70,185 60,399 -18,580 -77,182 -234,325 -415,402z"/>
     <g>
      <path fill="#64D462" fill-rule="nonzero" d="M1979 2078c-1,0 -2,0 -2,-1 -2,-1 -3,-3 -1,-5 190,-286 333,-606 426,-949 1,-2 3,-3 5,-3 2,1 4,3 3,5 -93,344 -237,664 -428,951 0,1 -2,2 -3,2z"/>
      <path fill="#64D462" fill-rule="nonzero" d="M2335 1363c-1,0 -3,-1 -3,-2 -1,-3 0,-5 2,-6 36,-14 70,-35 98,-62 2,-1 4,-1 6,1 1,1 1,4 0,5 -29,27 -64,49 -101,64 -1,0 -1,0 -2,0z"/>
      <path fill="#64D462" fill-rule="nonzero" d="M2274 1527c-2,0 -4,-2 -4,-3 -1,-3 1,-5 3,-5 51,-11 101,-32 144,-63 2,-1 4,0 6,1 1,2 1,5 -1,6 -44,31 -95,53 -148,64 0,0 0,0 0,0z"/>
      <path fill="#64D462" fill-rule="nonzero" d="M2208 1672c-2,0 -4,-2 -4,-4 0,-2 1,-4 3,-4 62,-11 121,-33 175,-65 2,-1 4,-1 6,1 1,2 0,4 -2,6 -55,33 -114,55 -177,66 -1,0 -1,0 -1,0z"/>
      <path fill="#64D462" fill-rule="nonzero" d="M2163 1814c-8,0 -16,0 -24,0 -2,-1 -4,-2 -4,-5 0,-2 2,-4 4,-3 53,3 108,-5 157,-25 2,-1 4,0 5,2 1,2 0,4 -2,5 -43,17 -90,26 -136,26z"/>
      <path fill="#64D462" fill-rule="nonzero" d="M2295 1467c-1,0 -3,-1 -3,-2 -35,-66 -59,-136 -70,-210 0,-3 1,-5 3,-5 3,0 5,1 5,3 11,74 34,143 69,208 1,2 0,4 -2,5 -1,1 -1,1 -2,1z"/>
      <path fill="#64D462" fill-rule="nonzero" d="M2221 1642c-2,0 -3,-1 -4,-3 -46,-92 -78,-189 -95,-291 0,-2 1,-4 3,-4 3,-1 5,1 5,3 17,100 49,198 94,289 1,2 0,4 -2,5 0,0 -1,1 -1,1z"/>
      <path fill="#64D462" fill-rule="nonzero" d="M2147 1791c-2,0 -3,0 -4,-1 -58,-88 -98,-189 -114,-292 0,-3 1,-5 4,-5 2,0 4,1 4,3 16,103 55,203 113,289 1,2 1,5 -1,6 -1,0 -2,0 -2,0z"/>
      <path fill="#64D462" fill-rule="nonzero" d="M2074 1924c-1,0 -2,-1 -3,-2 -52,-61 -92,-135 -116,-212 0,-2 1,-4 3,-5 2,0 4,1 5,3 24,76 63,148 114,209 2,2 2,4 0,6 -1,1 -2,1 -3,1z"/>
      <path fill="#64D462" fill-rule="nonzero" d="M2097 1948c-11,0 -23,-1 -34,-3 -2,0 -4,-3 -4,-5 1,-2 3,-3 5,-3 32,5 65,3 96,-7 2,-1 4,0 5,3 1,2 -1,4 -3,5 -21,6 -43,10 -65,10z"/>
     </g>
    </g>
    <g>
     <path fill="#88E38C" fill-rule="nonzero" d="M1877 1203c21,63 69,117 130,144 5,3 11,4 17,3 20,-3 20,-25 10,-37 -8,-9 -19,-14 -29,-20 -54,-30 -90,-89 -92,-150 -3,-62 30,-127 81,-161 -14,78 25,163 95,200 10,6 22,5 30,-3 11,-11 4,-27 -1,-39 -41,-90 -30,-201 27,-281 57,-80 157,-135 255,-126 -43,107 -67,222 -71,337 -1,12 -1,25 6,35 4,7 12,12 21,11 17,-1 23,-24 25,-42 5,-73 15,-145 30,-217 7,-34 18,-71 46,-90 37,-25 89,-12 130,4 -44,75 -73,159 -82,245 -2,15 -3,30 4,44 5,8 13,15 22,16 20,2 33,-19 41,-37 22,-48 47,-94 75,-138 17,-25 35,-51 61,-66 49,-28 110,-13 164,2 20,63 6,133 -50,168 -25,15 -55,24 -80,39 -14,8 -9,30 7,31 47,4 95,-8 135,-32 28,66 -10,145 -69,186 -64,45 -147,54 -224,60 -12,1 -23,8 -28,19 -12,26 18,42 42,48 90,20 187,11 273,-25 -11,47 -24,92 -47,134 -23,41 -60,78 -107,91 -39,10 -80,2 -120,-8 -32,-9 -65,-19 -96,-32 -16,-6 -35,-12 -47,1 -5,6 -6,13 -5,20 2,15 13,26 24,35 63,52 150,73 229,56 -7,59 -70,103 -129,107 -59,4 -117,-24 -164,-59 -10,-7 -19,-14 -31,-15 -6,0 -12,3 -16,8 -8,11 1,24 9,33 43,47 102,80 166,89 -29,31 -73,41 -114,33 -42,-8 -79,-30 -116,-51 -53,-33 -111,-72 -124,-133 -14,-60 21,-119 56,-171 -43,54 -116,69 -184,59 -68,-11 -129,-55 -163,-115 -34,-59 -37,-143 -22,-210z"/>
     <g>
      <path fill="#64D462" fill-rule="nonzero" d="M2250 1469c-1,0 -2,0 -3,-1 -2,-1 -2,-4 -1,-5 183,-220 420,-444 606,-614 1,-2 4,-2 5,0 2,2 2,4 0,6 -185,170 -422,394 -604,613 -1,1 -2,1 -3,1z"/>
      <path fill="#64D462" fill-rule="nonzero" d="M2472 1218c-2,0 -3,-1 -4,-3 -19,-137 -2,-277 48,-405 1,-2 4,-3 6,-3 2,1 3,3 2,6 -50,127 -67,265 -48,400 1,3 -1,5 -3,5 0,0 0,0 -1,0z"/>
      <path fill="#64D462" fill-rule="nonzero" d="M2604 1201c-34,0 -67,-3 -100,-10 -2,0 -4,-2 -3,-5 0,-2 2,-3 4,-3 106,22 218,8 315,-39 2,-1 4,0 5,2 1,2 0,4 -2,5 -68,33 -144,50 -219,50z"/>
      <path fill="#64D462" fill-rule="nonzero" d="M2329 1377c-2,0 -3,-1 -4,-2 -49,-79 -81,-170 -91,-262 -9,-93 3,-189 35,-276 1,-2 3,-3 5,-2 2,0 3,3 3,5 -32,86 -44,180 -35,272 10,91 41,181 90,259 1,2 1,4 -1,5 -1,1 -2,1 -2,1z"/>
      <path fill="#64D462" fill-rule="nonzero" d="M2675 1444c-37,0 -75,-4 -114,-13 -65,-14 -132,-39 -211,-80 -2,-1 -3,-3 -2,-5 1,-2 4,-3 6,-2 78,40 144,65 208,80 79,17 155,16 221,-1 2,-1 5,0 5,2 1,3 0,5 -3,5 -34,10 -71,14 -110,14z"/>
      <path fill="#64D462" fill-rule="nonzero" d="M2626 1685c0,0 0,0 0,0 -69,-6 -140,-35 -204,-84 -66,-50 -119,-116 -152,-161 -1,-1 -1,-4 1,-5 1,-2 4,-1 5,1 54,71 100,121 151,159 63,48 132,77 199,82 2,0 4,2 4,4 0,2 -2,4 -4,4z"/>
      <path fill="#64D462" fill-rule="nonzero" d="M2309 1400c-1,0 -2,-1 -2,-1 -85,-41 -151,-81 -207,-126 -68,-54 -121,-116 -157,-183 -1,-2 0,-5 2,-6 2,-1 4,0 5,2 35,66 88,127 155,181 56,45 121,84 205,125 2,1 3,3 2,5 0,2 -2,3 -3,3z"/>
      <path fill="#64D462" fill-rule="nonzero" d="M2179 1452c-34,0 -67,-4 -100,-13 -63,-16 -122,-47 -171,-91 -2,-1 -2,-4 0,-6 1,-1 4,-1 5,0 48,43 106,74 168,90 62,15 128,16 190,1 3,-1 5,1 5,3 1,2 0,4 -3,5 -31,7 -62,11 -94,11z"/>
     </g>
    </g>
    <g>
     <path fill="#B0F2C7" fill-rule="nonzero" d="M1555 893c25,-16 45,-43 65,-66 35,-42 65,-87 89,-136 17,-34 31,-75 14,-110 -6,13 -16,27 -29,34 -12,8 -32,5 -37,-9 -6,-15 10,-30 23,-41 37,-31 64,-75 73,-123 10,-48 3,-99 -19,-142 -9,11 -18,20 -32,25 -13,4 -31,-3 -33,-17 -3,-15 13,-26 25,-36 29,-26 39,-67 35,-106 -4,-38 -19,-74 -35,-109 -12,-27 -32,-59 -61,-57 -18,2 -32,16 -44,29 -25,29 -49,60 -72,91 -12,18 -24,36 -30,57 -6,20 -6,44 6,62 7,10 17,19 16,31 -1,18 -28,23 -41,12 -14,-11 -18,-30 -21,-48 -65,58 -84,163 -46,241 6,10 12,22 8,33 -6,15 -29,17 -41,7 -13,-11 -17,-27 -22,-43 -55,130 -27,289 70,391 25,27 55,49 94,46 17,-1 31,-7 45,-16z"/>
     <path fill="#88E38C" fill-rule="nonzero" d="M1484 911c0,0 0,0 0,0 -3,0 -4,-2 -4,-5 9,-296 60,-590 151,-873 0,-2 3,-3 5,-3 2,1 3,3 2,5 -90,282 -141,576 -150,872 0,2 -2,4 -4,4z"/>
    </g>
    <g>
     <path fill="#B0F2C7" fill-rule="nonzero" d="M2025 2083c34,10 72,7 106,7 62,1 124,-7 183,-22 43,-10 89,-28 106,-68 -16,4 -35,5 -51,-1 -15,-5 -27,-24 -19,-38 9,-17 33,-14 52,-11 55,10 113,0 161,-27 49,-26 88,-70 110,-121 -17,1 -32,-1 -46,-9 -13,-9 -21,-29 -10,-42 11,-13 33,-7 50,-5 44,7 87,-15 117,-47 31,-31 50,-71 70,-110 15,-31 28,-72 4,-96 -15,-14 -37,-16 -57,-16 -44,0 -88,1 -132,5 -24,2 -49,5 -72,15 -22,10 -42,27 -49,51 -4,13 -4,29 -15,37 -17,12 -41,-7 -41,-27 -1,-20 13,-38 26,-53 -98,-15 -203,46 -242,137 -5,12 -11,27 -24,31 -17,6 -35,-13 -35,-31 -1,-18 10,-35 20,-50 -152,48 -269,189 -287,348 -5,42 -2,84 29,115 13,14 29,23 46,28z"/>
     <path fill="#88E38C" fill-rule="nonzero" d="M1962 2035c-1,0 -3,0 -3,-1 -2,-2 -1,-5 0,-6 265,-210 557,-382 869,-512 2,0 5,1 6,3 0,2 -1,4 -3,5 -311,129 -603,300 -867,510 0,1 -1,1 -2,1z"/>
    </g>
    <g>
     <path fill="#88E38C" fill-rule="nonzero" d="M694 1008c62,19 132,10 188,-23 4,-3 8,-7 11,-12 9,-18 -9,-30 -24,-29 -12,1 -22,8 -32,13 -54,26 -121,22 -172,-11 -50,-33 -84,-95 -82,-155 54,55 144,71 213,36 9,-4 15,-15 14,-25 -3,-15 -19,-19 -32,-21 -95,-18 -177,-89 -209,-179 -32,-90 -20,-201 42,-274 62,94 140,177 229,245 10,7 20,14 32,15 8,0 16,-3 20,-10 9,-15 -6,-33 -20,-44 -55,-45 -107,-93 -155,-145 -24,-25 -47,-54 -46,-88 0,-43 39,-77 75,-101 35,77 86,147 150,203 11,10 22,19 37,21 9,1 19,-2 25,-9 13,-15 3,-37 -7,-54 -25,-43 -48,-89 -67,-136 -12,-28 -22,-56 -19,-86 5,-54 51,-95 94,-129 61,19 109,69 105,134 -2,28 -12,57 -13,85 -1,16 18,24 28,12 30,-36 48,-80 50,-126 68,15 110,90 110,160 0,76 -39,147 -78,211 -6,11 -7,24 0,34 14,23 44,9 61,-7 67,-61 115,-143 134,-232 31,36 59,71 80,113 20,42 29,92 13,135 -14,38 -43,66 -73,92 -26,21 -52,41 -80,59 -14,9 -30,21 -25,38 1,7 7,13 13,16 13,6 27,4 41,0 76,-21 142,-79 173,-152 43,38 43,113 13,163 -30,49 -84,80 -139,98 -11,3 -22,7 -28,16 -4,5 -6,12 -4,17 5,12 20,13 32,12 62,-8 121,-38 164,-83 9,41 -8,81 -38,110 -30,28 -68,46 -106,63 -55,25 -119,49 -175,25 -55,-23 -83,-84 -105,-140 19,64 -10,131 -56,179 -46,49 -116,72 -182,66 -67,-6 -136,-50 -180,-100z"/>
     <g>
      <path fill="#64D462" fill-rule="nonzero" d="M1111 862c-2,0 -3,-2 -4,-3 -73,-269 -119,-583 -151,-827 0,-2 1,-4 4,-4 2,0 4,1 4,3 32,244 78,557 151,826 1,2 -1,4 -3,4 0,1 -1,1 -1,1z"/>
      <path fill="#64D462" fill-rule="nonzero" d="M1035 543c0,0 -1,0 -1,0 -120,-61 -223,-153 -297,-265 -1,-2 0,-4 2,-6 1,-1 4,0 5,2 73,111 175,201 293,262 2,1 3,3 2,5 -1,2 -2,2 -4,2z"/>
      <path fill="#64D462" fill-rule="nonzero" d="M1032 503c-1,0 -2,-1 -3,-2 -1,-1 -1,-4 0,-5 76,-72 128,-169 145,-273 0,-2 2,-3 4,-3 3,0 4,2 4,5 -18,105 -70,203 -147,277 -1,0 -2,1 -3,1z"/>
      <path fill="#64D462" fill-rule="nonzero" d="M1082 747c0,0 0,0 0,0 -91,-5 -181,-30 -261,-75 -79,-44 -148,-107 -200,-181 -1,-2 -1,-5 1,-6 2,-1 4,-1 5,1 52,74 120,136 198,179 79,44 167,69 257,74 2,0 4,2 4,4 0,2 -2,4 -4,4z"/>
      <path fill="#64D462" fill-rule="nonzero" d="M1075 714c-2,0 -3,0 -4,-2 -1,-2 0,-4 2,-5 75,-40 133,-79 180,-122 57,-53 100,-114 123,-177 0,-2 3,-3 5,-2 2,0 3,3 2,5 -23,64 -66,126 -125,180 -47,43 -105,83 -181,123 -1,0 -2,0 -2,0z"/>
      <path fill="#64D462" fill-rule="nonzero" d="M1103 828c-3,0 -4,-2 -4,-4 -1,-3 1,-4 3,-4 88,-3 153,-12 212,-31 73,-24 135,-63 177,-113 1,-2 4,-2 5,-1 2,2 2,4 1,6 -43,51 -106,91 -181,115 -60,20 -125,29 -213,32 0,0 0,0 0,0z"/>
      <path fill="#64D462" fill-rule="nonzero" d="M702 896c-21,0 -42,-2 -62,-4 -2,0 -3,-2 -3,-5 0,-2 2,-3 4,-3 73,9 150,1 231,-22 67,-20 135,-50 215,-94 2,-1 4,0 5,1 1,2 0,5 -1,6 -81,45 -149,75 -216,94 -60,18 -118,27 -173,27z"/>
      <path fill="#64D462" fill-rule="nonzero" d="M826 1065c-2,0 -4,-2 -4,-3 -1,-3 1,-5 3,-5 61,-14 118,-43 165,-84 47,-41 84,-93 107,-151 1,-2 4,-3 6,-2 2,0 3,3 2,5 -24,59 -61,112 -110,154 -48,42 -106,71 -168,86 -1,0 -1,0 -1,0z"/>
     </g>
    </g>
    <g>
     <path fill="#64D462" fill-rule="nonzero" d="M911 1419c-2,0 -3,-1 -4,-2 -168,-359 -420,-681 -729,-929 -2,-1 -2,-4 -1,-6 1,-1 4,-2 6,0 310,249 563,571 731,931 1,2 0,5 -2,6 0,0 -1,0 -1,0z"/>
     <path fill="#B0F2C7" fill-rule="nonzero" d="M306 593c0,0 -315,-126 -249,-216 66,-89 249,216 249,216z"/>
     <path fill="#B0F2C7" fill-rule="nonzero" d="M436 722c0,0 -340,17 -317,-91 23,-109 317,91 317,91z"/>
     <path fill="#B0F2C7" fill-rule="nonzero" d="M562 864c0,0 -340,17 -317,-92 23,-109 317,92 317,92z"/>
     <path fill="#B0F2C7" fill-rule="nonzero" d="M670 1000c0,0 -339,17 -317,-91 23,-109 317,91 317,91z"/>
     <path fill="#B0F2C7" fill-rule="nonzero" d="M763 1139c0,0 -339,17 -317,-91 23,-109 317,91 317,91z"/>
     <path fill="#B0F2C7" fill-rule="nonzero" d="M826 1250c0,0 -262,14 -244,-70 18,-84 244,70 244,70z"/>
     <path fill="#B0F2C7" fill-rule="nonzero" d="M851 1293c0,0 -43,-259 42,-251 85,8 -42,251 -42,251z"/>
     <path fill="#B0F2C7" fill-rule="nonzero" d="M476 764c0,0 -198,-277 -95,-316 104,-40 95,316 95,316z"/>
     <path fill="#B0F2C7" fill-rule="nonzero" d="M599 906c0,0 -178,-290 -71,-322 106,-32 71,322 71,322z"/>
     <path fill="#B0F2C7" fill-rule="nonzero" d="M714 1066c0,0 -161,-300 -53,-326 108,-26 53,326 53,326z"/>
     <path fill="#B0F2C7" fill-rule="nonzero" d="M799 1200c0,0 -118,-319 -7,-329 110,-11 7,329 7,329z"/>
    </g>
    <g>
     <path fill="#64D462" fill-rule="nonzero" d="M2031 910c0,0 -1,0 -2,-1 -2,-1 -2,-4 -1,-5 172,-235 399,-430 657,-565 2,-1 4,0 5,2 2,2 1,4 -1,5 -257,135 -483,329 -654,562 -1,1 -2,2 -4,2z"/>
     <path fill="#B0F2C7" fill-rule="nonzero" d="M2581 403c0,0 244,-46 210,-120 -35,-73 -210,120 -210,120z"/>
     <path fill="#B0F2C7" fill-rule="nonzero" d="M2470 477c0,0 241,60 240,-21 -1,-81 -240,21 -240,21z"/>
     <path fill="#B0F2C7" fill-rule="nonzero" d="M2359 560c0,0 241,61 240,-20 0,-82 -240,20 -240,20z"/>
     <path fill="#B0F2C7" fill-rule="nonzero" d="M2263 643c0,0 240,60 240,-21 -1,-81 -240,21 -240,21z"/>
     <path fill="#B0F2C7" fill-rule="nonzero" d="M2176 729c0,0 241,61 240,-21 -1,-81 -240,21 -240,21z"/>
     <path fill="#B0F2C7" fill-rule="nonzero" d="M2115 800c0,0 186,46 185,-16 0,-63 -185,16 -185,16z"/>
     <path fill="#B0F2C7" fill-rule="nonzero" d="M2092 827c0,0 67,-179 5,-186 -62,-6 -5,186 -5,186z"/>
     <path fill="#B0F2C7" fill-rule="nonzero" d="M2436 501c0,0 181,-170 112,-213 -69,-43 -112,213 -112,213z"/>
     <path fill="#B0F2C7" fill-rule="nonzero" d="M2327 585c0,0 168,-182 97,-220 -72,-38 -97,220 -97,220z"/>
     <path fill="#B0F2C7" fill-rule="nonzero" d="M2222 683c0,0 158,-191 84,-225 -73,-34 -84,225 -84,225z"/>
     <path fill="#B0F2C7" fill-rule="nonzero" d="M2142 768c0,0 129,-212 52,-235 -78,-24 -52,235 -52,235z"/>
    </g>
    <g>
     <path fill="#88E38C" fill-rule="nonzero" d="M1112 2091c-272,-2 -542,-118 -731,-314 -189,-195 -294,-469 -286,-741 269,8 535,130 724,322 189,192 289,463 293,733z"/>
     <g>
      <path fill="#64D462" fill-rule="nonzero" d="M1101 2087c-2,0 -3,-1 -4,-2 -263,-388 -593,-735 -979,-1029 -2,-2 -2,-4 -1,-6 2,-2 4,-2 6,-1 387,295 717,642 981,1032 1,2 1,4 -1,5 -1,1 -2,1 -2,1z"/>
      <path fill="#64D462" fill-rule="nonzero" d="M381 1267c0,0 0,0 0,0 -2,0 -4,-1 -4,-4 1,-53 -9,-107 -28,-157 0,-2 1,-4 3,-5 2,-1 4,0 5,2 19,51 29,106 28,160 0,3 -2,4 -4,4z"/>
      <path fill="#64D462" fill-rule="nonzero" d="M556 1430c0,0 -1,0 -1,0 -2,-1 -3,-3 -3,-5 13,-71 12,-145 -4,-215 -1,-2 1,-4 3,-5 2,0 4,1 5,3 16,71 17,147 4,219 0,2 -2,3 -4,3z"/>
      <path fill="#64D462" fill-rule="nonzero" d="M705 1588c0,0 0,0 -1,0 -2,-1 -3,-3 -3,-5 19,-84 22,-170 8,-255 0,-2 2,-4 4,-5 2,0 4,1 4,4 14,86 11,172 -8,258 0,1 -2,3 -4,3z"/>
      <path fill="#64D462" fill-rule="nonzero" d="M849 1748c-1,0 -1,0 -2,0 -2,-1 -3,-4 -2,-6 32,-65 50,-138 50,-211 0,-2 2,-4 4,-4 0,0 0,0 0,0 2,0 4,2 4,4 0,74 -18,148 -50,215 -1,1 -3,2 -4,2z"/>
      <path fill="#64D462" fill-rule="nonzero" d="M400 1376c-70,0 -140,-8 -209,-25 -2,0 -4,-3 -3,-5 0,-2 3,-3 5,-3 98,24 198,31 298,21 2,-1 4,1 4,3 0,2 -1,4 -3,5 -31,3 -61,4 -92,4z"/>
      <path fill="#64D462" fill-rule="nonzero" d="M568 1560c-104,0 -208,-11 -310,-34 -3,-1 -4,-3 -3,-5 0,-2 2,-4 4,-3 136,30 276,40 414,30 3,0 5,2 5,4 0,2 -2,4 -4,4 -35,3 -70,4 -106,4z"/>
      <path fill="#64D462" fill-rule="nonzero" d="M628 1747c-78,0 -155,-9 -230,-27 -2,0 -3,-2 -3,-5 1,-2 3,-3 5,-3 138,34 285,36 424,7 2,0 4,1 5,3 0,3 -1,5 -3,5 -65,14 -132,20 -198,20z"/>
      <path fill="#64D462" fill-rule="nonzero" d="M700 1927c-24,0 -48,-1 -71,-3 -3,-1 -4,-3 -4,-5 0,-2 2,-4 4,-4 109,10 221,-3 325,-36 2,-1 4,0 5,3 0,2 -1,4 -3,5 -82,26 -170,40 -256,40z"/>
      <path fill="#64D462" fill-rule="nonzero" d="M976 1912c-1,0 -2,-1 -2,-1 -2,-1 -3,-4 -2,-5 24,-38 38,-82 41,-126 0,-2 2,-4 5,-4 2,1 3,2 3,5 -3,45 -18,90 -42,129 0,1 -2,2 -3,2z"/>
     </g>
    </g>
    <g>
     <path fill="#88E38C" fill-rule="nonzero" d="M1780 986c-61,-189 -43,-403 49,-580 93,-177 258,-313 449,-371 57,189 33,402 -56,578 -90,176 -255,308 -442,373z"/>
     <g>
      <path fill="#64D462" fill-rule="nonzero" d="M1783 981c-1,0 -1,-1 -2,-1 -2,-1 -2,-4 -1,-6 209,-273 374,-582 489,-918 1,-2 3,-3 5,-3 2,1 3,4 3,6 -116,337 -281,646 -491,920 0,1 -2,2 -3,2z"/>
      <path fill="#64D462" fill-rule="nonzero" d="M2187 291c-2,0 -4,-1 -4,-3 -1,-2 0,-4 2,-5 37,-11 73,-30 103,-55 1,-1 4,-1 5,1 2,1 1,4 0,5 -31,25 -67,45 -105,57 -1,0 -1,0 -1,0z"/>
      <path fill="#64D462" fill-rule="nonzero" d="M2114 450c-2,0 -4,-1 -4,-3 0,-2 1,-4 3,-5 53,-7 104,-25 149,-52 2,-1 4,-1 5,1 1,2 1,4 -1,6 -46,27 -98,46 -151,53 -1,0 -1,0 -1,0z"/>
      <path fill="#64D462" fill-rule="nonzero" d="M2039 590c-2,0 -4,-1 -4,-3 0,-2 1,-4 3,-5 63,-6 123,-24 179,-53 2,-1 5,0 6,2 1,2 0,4 -2,5 -57,30 -118,48 -182,54 0,0 0,0 0,0z"/>
      <path fill="#64D462" fill-rule="nonzero" d="M2008 731c-16,0 -32,-1 -48,-4 -2,0 -4,-2 -3,-4 0,-2 2,-4 4,-4 53,8 108,3 158,-14 2,-1 5,0 5,3 1,2 0,4 -2,5 -37,12 -75,18 -114,18z"/>
      <path fill="#64D462" fill-rule="nonzero" d="M2140 392c-2,0 -3,-1 -4,-3 -31,-67 -49,-139 -56,-214 0,-2 2,-4 4,-4 2,0 4,1 4,4 7,73 25,145 55,211 1,2 0,5 -2,5 0,1 -1,1 -1,1z"/>
      <path fill="#64D462" fill-rule="nonzero" d="M2054 561c-2,0 -4,-1 -4,-2 -40,-95 -65,-195 -75,-297 -1,-2 1,-4 3,-4 3,-1 4,1 5,3 10,102 35,201 74,295 1,2 0,4 -2,5 0,0 -1,0 -1,0z"/>
      <path fill="#64D462" fill-rule="nonzero" d="M1970 706c-2,0 -3,-1 -4,-2 -53,-91 -85,-194 -94,-299 0,-2 1,-4 4,-4 2,-1 4,1 4,3 9,104 41,206 93,296 1,2 1,4 -1,5 -1,1 -2,1 -2,1z"/>
      <path fill="#64D462" fill-rule="nonzero" d="M1889 833c-1,0 -3,0 -3,-1 -48,-66 -83,-141 -102,-220 -1,-2 1,-4 3,-5 2,0 4,1 5,3 18,78 53,153 100,217 1,2 1,4 -1,5 -1,1 -1,1 -2,1z"/>
      <path fill="#64D462" fill-rule="nonzero" d="M1924 859c-16,0 -33,-2 -49,-6 -2,0 -3,-2 -3,-4 1,-3 3,-4 5,-3 32,7 65,7 96,-1 3,-1 5,1 5,3 1,2 -1,4 -3,5 -16,4 -34,6 -51,6z"/>
     </g>
    </g>
    <g>
     <path fill="#B0F2C7" fill-rule="nonzero" d="M907 2078c-34,11 -74,10 -110,12 -64,3 -129,-2 -192,-15 -45,-9 -94,-26 -114,-67 17,4 38,4 53,-3 16,-6 28,-26 19,-41 -10,-17 -36,-13 -55,-8 -57,12 -117,4 -169,-21 -52,-26 -95,-70 -120,-122 17,0 33,-3 47,-12 14,-10 21,-31 9,-44 -13,-13 -35,-6 -53,-3 -45,9 -91,-12 -124,-44 -33,-31 -55,-72 -77,-112 -17,-31 -33,-73 -9,-99 15,-16 38,-19 60,-20 45,-2 91,-3 137,-1 26,1 52,3 75,13 24,9 46,27 54,51 5,14 6,30 18,38 17,12 42,-9 41,-30 0,-21 -15,-39 -30,-54 102,-20 215,39 259,132 6,13 13,28 26,32 19,5 36,-15 36,-34 0,-19 -12,-36 -24,-51 162,43 290,185 316,351 6,43 5,87 -25,121 -14,15 -30,24 -48,31z"/>
     <path fill="#88E38C" fill-rule="nonzero" d="M971 2025c-1,0 -2,0 -2,-1 -285,-208 -597,-374 -927,-495 -3,-1 -4,-3 -3,-5 1,-2 3,-3 5,-2 332,121 644,288 929,496 2,1 3,3 1,5 0,1 -2,2 -3,2z"/>
    </g>
   </g>
   <g>
    <g>
     <g>
      <polygon fill="#462F7B" fill-rule="nonzero" points="1963,2091 1145,2091 1154,2065 1963,2065 "/>
      <polygon fill="#858ECF" fill-rule="nonzero" points="1521,2091 1145,2091 1154,2065 1521,2065 "/>
     </g>
     <g>
      <polygon fill="#5749A1" fill-rule="nonzero" points="1692,1419 1586,1697 1512,1891 1446,2065 1154,2065 1240,1839 1295,1695 1400,1419 "/>
      <polygon fill="#462F7B" fill-rule="nonzero" points="1586,1695 1586,1697 1497,1932 1227,1873 1295,1695 "/>
     </g>
    </g>
    <g>
     <g>
      <path fill="#462F7B" fill-rule="nonzero" d="M2325 1784l-1681 0c-27,0 -52,-22 -56,-49l-161 -1159c-4,-27 15,-49 42,-49l1681 0c27,0 52,22 55,49l162 1159c4,27 -15,49 -42,49z"/>
      <path fill="#5749A1" fill-rule="nonzero" d="M2384 1784l-1681 0c-27,0 -52,-22 -56,-49l-161 -1159c-4,-27 15,-49 42,-49l1681 0c27,0 52,22 55,49l162 1159c4,27 -15,49 -42,49z"/>
     </g>
     <g>
      <path fill="#858ECF" fill-rule="nonzero" d="M2229 596l135 968c2,15 -8,27 -23,27l-1649 0c-15,0 -28,-12 -31,-27l-135 -968c-2,-15 9,-27 23,-27l1650 0c14,0 28,12 30,27z"/>
      <path fill="#462F7B" fill-rule="nonzero" d="M2229 596l135 968c2,15 -8,27 -23,27l-21 0c15,0 25,-12 23,-27l-135 -968c-2,-15 -16,-27 -30,-27l21 0c14,0 28,12 30,27z"/>
      <g>
       <polygon fill="white" fill-rule="nonzero" fill-opacity="0.501961" points="1584,569 1075,1591 802,1591 1312,569 "/>
       <polygon fill="white" fill-rule="nonzero" fill-opacity="0.501961" points="1787,569 1278,1591 1175,1591 1685,569 "/>
       <polygon fill="white" fill-rule="nonzero" fill-opacity="0.501961" points="991,569 625,1304 603,1143 889,569 "/>
       <g>
        <polygon fill="white" fill-rule="nonzero" fill-opacity="0.501961" points="2249,888 1898,1591 2035,1591 2279,1102 "/>
       </g>
      </g>
     </g>
    </g>
   </g>
   <g>
    <path fill="#462F7B" fill-rule="nonzero" d="M2219 1362c0,-86 -70,-156 -156,-156 -17,0 -34,3 -49,8l0 -5 -37 23 0 0c-42,28 -70,76 -70,130 0,86 70,156 156,156 27,0 52,-7 74,-19l0 0 35 -21 -4 -1c31,-29 51,-70 51,-115z"/>
    <g>
     <path fill="#5749A1" fill-rule="nonzero" d="M2248 1344c0,87 -70,157 -156,157 -86,0 -156,-70 -156,-157 0,-86 70,-156 156,-156 86,0 156,70 156,156z"/>
    </g>
    <g>
     <path fill="white" fill-rule="nonzero" d="M2031 1408l-25 0c-5,0 -9,-4 -9,-9l0 -82c0,-5 4,-8 9,-8l25 0c5,0 9,3 9,8l0 82c0,5 -4,9 -9,9z"/>
     <path fill="white" fill-rule="nonzero" d="M2053 1396l0 -76c0,-6 5,-11 11,-12 10,-1 21,-4 29,-10 12,-7 20,-19 25,-32 1,-4 1,-7 3,-10 2,-3 4,-6 8,-6 4,-2 9,1 11,4 3,4 4,8 4,13 0,15 -9,31 -23,37 12,-2 23,-2 35,-2 5,0 10,0 14,2 4,4 6,10 7,15 5,20 4,41 2,61 0,8 -2,16 -7,22 -6,5 -14,6 -22,7 -28,1 -57,-1 -85,-1 -7,0 -12,-6 -12,-12z"/>
    </g>
   </g>
   <g>
    <path fill="#564199" fill-rule="nonzero" d="M1672 1556l-902 0c-37,0 -68,-31 -68,-68l0 -244c0,-25 43,-69 68,-69l902 23c26,0 46,21 46,46l26 248c0,25 -46,64 -72,64z"/>
    <g>
     <path fill="#B5A5F4" fill-rule="nonzero" d="M1699 1532l-925 0c-25,0 -46,-21 -46,-46l0 -266c0,-25 21,-45 46,-45l925 0c25,0 45,20 45,45l0 266c0,25 -20,46 -45,46z"/>
     <g>
      <path fill="#FFEFF9" fill-rule="nonzero" d="M1327 1285l-521 0c-12,0 -22,-10 -22,-22l0 -4c0,-12 10,-22 22,-22l521 0c12,0 22,10 22,22l0 4c0,12 -10,22 -22,22z"/>
      <path fill="#FFEFF9" fill-rule="nonzero" d="M1544 1377l-738 0c-12,0 -22,-10 -22,-22l0 -4c0,-12 10,-22 22,-22l738 0c13,0 23,10 23,22l0 4c0,12 -10,22 -23,22z"/>
      <path fill="#FFEFF9" fill-rule="nonzero" d="M1431 1469l-625 0c-12,0 -22,-10 -22,-22l0 -3c0,-13 10,-23 22,-23l625 0c12,0 22,10 22,23l0 3c0,12 -10,22 -22,22z"/>
     </g>
    </g>
   </g>
   <g>
    <g>
     <g>
      <path fill="#462F7B" fill-rule="nonzero" d="M2372 651l-1616 -24c-26,0 -69,46 -69,72l0 244c0,36 29,64 64,64l89 0 57 78c8,11 20,17 33,17l15 0 72 -95 1355 0c26,0 74,-37 74,-64l-26 -244c0,-26 -22,-48 -48,-48z"/>
      <path fill="#5749A1" fill-rule="nonzero" d="M2399 626l-1636 0c-27,0 -48,22 -48,48l0 260c0,27 21,48 48,48l95 0 87 120 88 -120 1366 0c26,0 48,-21 48,-48l0 -260c0,-26 -22,-48 -48,-48z"/>
     </g>
     <g>
      <g>
       <path fill="#FF7B2A" fill-rule="nonzero" d="M1022 782c9,-9 4,-23 -8,-25l-56 -8c-4,-1 -8,-4 -10,-8l-11 -21 -9 -38 -18 0c-5,0 -11,3 -13,9l-25 50c-2,4 -6,7 -11,8l-56 8c-11,2 -16,16 -8,25l41 39c3,3 5,8 4,13l-10 55c-1,9 6,17 15,17l0 0 16 0 0 -7 40 -21c4,-2 9,-2 13,0l50 26c2,1 5,2 7,2l0 0 19 0 -5 -11c0,-2 1,-4 0,-6l-9 -55c-1,-5 0,-10 4,-13l40 -39z"/>
       <path fill="#FFC638" fill-rule="nonzero" d="M941 691l25 50c2,4 6,7 11,8l55 8c12,2 17,16 8,25l-40 39c-3,3 -5,8 -4,13l9 55c2,12 -10,21 -21,15l-49 -26c-5,-2 -10,-2 -14,0l-50 26c-10,6 -23,-3 -21,-15l10 -55c1,-5 -1,-10 -4,-13l-40 -39c-9,-9 -4,-23 8,-25l55 -8c5,-1 9,-4 11,-8l25 -50c5,-11 21,-11 26,0z"/>
      </g>
      <g>
       <path fill="#FF7B2A" fill-rule="nonzero" d="M1348 782c9,-9 4,-23 -8,-25l-55 -8c-5,-1 -9,-4 -11,-8l-10 -21 -10 -38 -18 0c-5,0 -10,3 -13,9l-25 50c-2,4 -6,7 -11,8l-55 8c-12,2 -17,16 -8,25l40 39c3,3 5,8 4,13l-9 55c-2,9 6,17 14,17l0 0 17 0 -1 -7 40 -21c5,-2 10,-2 14,0l50 26c2,1 4,2 7,2l0 0 18 0 -5 -11c1,-2 1,-4 1,-6l-10 -55c-1,-5 1,-10 4,-13l40 -39z"/>
       <path fill="#FFC638" fill-rule="nonzero" d="M1267 691l25 50c2,4 6,7 11,8l56 8c11,2 16,16 8,25l-41 39c-3,3 -5,8 -4,13l10 55c2,12 -11,21 -21,15l-50 -26c-4,-2 -9,-2 -14,0l-49 26c-11,6 -23,-3 -21,-15l9 -55c1,-5 0,-10 -4,-13l-40 -39c-9,-9 -4,-23 8,-25l55 -8c5,-1 9,-4 11,-8l25 -50c6,-11 21,-11 26,0z"/>
      </g>
      <g>
       <path fill="#FF7B2A" fill-rule="nonzero" d="M1675 782c8,-9 4,-23 -8,-25l-56 -8c-4,-1 -9,-4 -11,-8l-10 -21 -9 -38 -18 0c-6,0 -11,3 -13,9l-25 50c-2,4 -6,7 -11,8l-56 8c-12,2 -16,16 -8,25l40 39c4,3 5,8 5,13l-10 55c-2,9 6,17 14,17l0 0 17 0 -1 -7 41 -21c4,-2 9,-2 13,0l50 26c2,1 5,2 7,2l0 0 19 0 -5 -11c0,-2 0,-4 0,-6l-9 -55c-1,-5 0,-10 4,-13l40 -39z"/>
       <path fill="#FFC638" fill-rule="nonzero" d="M1594 691l24 50c3,4 7,7 11,8l56 8c12,2 17,16 8,25l-40 39c-4,3 -5,8 -4,13l9 55c2,12 -10,21 -21,15l-50 -26c-4,-2 -9,-2 -13,0l-50 26c-10,6 -23,-3 -21,-15l10 -55c0,-5 -1,-10 -4,-13l-41 -39c-8,-9 -4,-23 8,-25l56 -8c5,-1 9,-4 11,-8l25 -50c5,-11 20,-11 26,0z"/>
      </g>
      <g>
       <path fill="#FF7B2A" fill-rule="nonzero" d="M2001 782c9,-9 4,-23 -8,-25l-55 -8c-5,-1 -9,-4 -11,-8l-11 -21 -9 -38 -18 0c-5,0 -10,3 -13,9l-25 50c-2,4 -6,7 -11,8l-55 8c-12,2 -17,16 -8,25l40 39c3,3 5,8 4,13l-9 55c-2,9 5,17 14,17l0 0 17 0 -1 -7 40 -21c4,-2 9,-2 14,0l49 26c3,1 5,2 7,2l0 0 19 0 -5 -11c1,-2 1,-4 0,-6l-9 -55c-1,-5 1,-10 4,-13l40 -39z"/>
       <path fill="#FFC638" fill-rule="nonzero" d="M1920 691l25 50c2,4 6,7 11,8l55 8c12,2 17,16 8,25l-40 39c-3,3 -5,8 -4,13l9 55c3,12 -10,21 -21,15l-49 -26c-4,-2 -9,-2 -14,0l-49 26c-11,6 -23,-3 -21,-15l9 -55c1,-5 -1,-10 -4,-13l-40 -39c-9,-9 -4,-23 8,-25l55 -8c5,-1 9,-4 11,-8l25 -50c5,-11 21,-11 26,0z"/>
      </g>
      <g>
       <path fill="#858ECF" fill-rule="nonzero" d="M2362 782c8,-9 3,-23 -9,-25l-55 -8c-5,-1 -9,-4 -11,-8l-25 -50c-2,-6 -8,-9 -13,-9l-17 1 -3 22 -18 36c-2,4 -6,7 -11,8l-55 8c-12,2 -17,16 -8,25l40 39c3,3 5,8 4,13l-9 55c-1,3 0,6 1,9l-3 8 16 0 0 0c2,0 5,-1 7,-2l49 -26c5,-2 10,-2 14,0l39 21 2 7 15 0 0 0c9,0 16,-8 15,-17l-10 -55c-1,-5 1,-10 4,-13l41 -39z"/>
       <g>
        <path fill="#462F7B" fill-rule="nonzero" d="M2246 691l25 50c2,4 6,7 11,8l56 8c12,2 16,16 8,25l-40 39c-4,3 -5,8 -5,13l10 55c2,12 -11,21 -21,15l-50 -26c-4,-2 -9,-2 -13,0l-50 26c-11,6 -23,-3 -21,-15l9 -55c1,-5 0,-10 -4,-13l-40 -39c-8,-9 -4,-23 8,-25l56 -8c4,-1 8,-4 11,-8l24 -50c6,-11 21,-11 26,0z"/>
       </g>
      </g>
     </g>
    </g>
    <g>
     <path fill="#FF7B2A" fill-rule="nonzero" d="M2375 345c8,-20 -10,-42 -31,-37l-100 24c-8,2 -17,-1 -24,-7l-32 -28 -42 -58 -31 12c-8,4 -15,12 -16,23l-6 102c-1,8 -5,16 -13,20l-88 51c-18,11 -16,39 4,47l96 40c8,4 14,11 16,19l23 100c4,17 22,25 36,20l0 0 29 -12 -6 -10 53 -63c5,-7 14,-10 22,-9l102 11c5,1 9,0 13,-2l0 1 32 -13 -16 -15c-1,-4 -2,-7 -4,-11l-55 -87c-5,-8 -6,-17 -2,-25l40 -93z"/>
     <path fill="#FFC638" fill-rule="nonzero" d="M2173 244l78 69c6,6 15,9 24,7l99 -24c21,-5 40,17 31,37l-40 93c-3,8 -2,17 2,25l55 87c12,19 -2,43 -24,40l-102 -11c-9,-1 -17,2 -23,9l-65 77c-14,17 -41,10 -46,-12l-24 -100c-2,-8 -8,-15 -16,-19l-95 -40c-21,-8 -23,-36 -4,-47l88 -51c7,-4 12,-12 12,-20l7 -102c1,-22 27,-32 43,-18z"/>
    </g>
   </g>
  </g>
 </g>
</svg>
