<?xml version="1.0" encoding="UTF-8"?>
<!DOCTYPE svg PUBLIC "-//W3C//DTD SVG 1.1//EN" "http://www.w3.org/Graphics/SVG/1.1/DTD/svg11.dtd">
<!-- Creator: CorelDRAW X8 -->
<svg xmlns="http://www.w3.org/2000/svg" xml:space="preserve" width="2.34561in" height="2.34561in" version="1.1" shape-rendering="geometricPrecision" text-rendering="geometricPrecision" image-rendering="optimizeQuality" fill-rule="evenodd" clip-rule="evenodd"
viewBox="0 0 1277 1277"
 xmlns:xlink="http://www.w3.org/1999/xlink">
 <g id="Layer_x0020_1">
  <metadata id="CorelCorpID_0Corel-Layer"/>
  <g id="_1861454296608">
   <path fill="#FFF200" fill-rule="nonzero" d="M647 15c0,0 -166,172 -493,172 48,108 244,451 4,923 0,0 264,-36 486,152 0,0 178,-167 475,-167 -197,-367 -143,-677 3,-914 -45,-6 -299,-2 -475,-166z"/>
   <path fill="black" fill-rule="nonzero" d="M647 21c-22,22 -186,168 -487,170 3,6 6,13 9,20l0 0c62,130 215,456 -4,894 44,-4 278,-17 479,152 22,-20 194,-163 468,-166 -89,-168 -126,-324 -125,-467 1,-166 51,-313 129,-440 -5,0 -11,0 -19,-1 -80,-5 -294,-20 -450,-162zm-493 162c325,0 490,-170 490,-171l3 -2 3 2c154,143 368,158 448,163 11,1 19,1 25,2l6 1 -3 5c-79,127 -130,275 -131,441 -1,143 37,300 127,469l3 6 -6 0c-295,0 -472,165 -473,166l-2 2 -3 -2c-220,-187 -482,-151 -483,-151l-7 1 3 -7c223,-438 69,-763 8,-893l0 0c-4,-10 -8,-18 -12,-26l-2 -6 6 0z"/>
   <path fill="#031CFB" fill-rule="nonzero" d="M647 43c0,0 -155,164 -458,164 45,104 226,431 4,882 0,0 245,-35 450,145 0,0 166,-159 440,-159 -181,-351 -132,-647 4,-874 -42,-5 -277,-2 -440,-158z"/>
   <path fill="black" fill-rule="nonzero" d="M647 46c-16,16 -169,162 -455,163 3,7 7,14 10,22 57,125 199,437 -6,855 31,-3 256,-21 447,146 16,-15 177,-158 437,-159 -83,-162 -117,-312 -117,-449 1,-158 48,-300 121,-421 -5,-1 -12,-1 -20,-2 -75,-5 -274,-19 -417,-155zm-458 159c303,0 456,-163 456,-164l1 -1 2 1c143,137 341,151 416,156 10,1 18,2 23,2l3 1 -1 2c-73,122 -121,263 -122,422 0,138 34,288 118,450l2 3 -4 0c-273,0 -438,158 -438,159l-2 1 -1 -1c-205,-180 -448,-145 -449,-145l-4 0 2 -3c206,-419 64,-730 8,-855 -5,-9 -8,-17 -12,-25l-1 -3 3 0z"/>
   <path fill="#FFF200" fill-rule="nonzero" d="M493 322c0,0 5,41 1,54 -16,5 -70,24 -74,127 -16,-16 -40,-62 -50,-66 -10,-3 -14,6 -14,6 0,0 4,3 7,20 4,18 10,32 10,53 0,21 1,31 3,42 2,12 32,15 38,18 7,2 15,6 20,15 5,9 30,43 42,51 12,9 23,23 38,26 15,4 20,8 24,5 3,-4 1,-17 1,-17 0,0 22,18 34,19 11,1 17,-1 17,-12 0,-11 -25,-71 -36,-89 -1,-27 2,-69 2,-69 0,0 -23,9 -25,16 -2,-24 2,-34 2,-34 0,0 61,-44 63,-71 16,-1 81,2 95,17 14,15 29,29 43,36 15,8 19,-2 19,-2l-7 -18c0,0 27,2 44,11 17,9 29,17 39,17 11,0 50,-28 51,-38 2,-10 -15,-13 -23,-14 14,-9 26,-19 30,-32 4,-12 7,-27 27,-43 7,-15 7,-22 -10,-18 -16,5 -56,24 -75,39 -18,15 -37,31 -54,33 -17,3 -42,-3 -42,-3 0,0 29,-15 31,-24 -10,-11 -12,-10 -29,-11 -16,-1 -26,3 -37,9 -12,6 -39,-2 -56,-3 -18,0 -52,-8 -69,-8 -16,0 -36,-1 -36,-1 0,0 -13,-21 -44,-41l0 0z"/>
   <path fill="black" fill-rule="nonzero" d="M496 326c1,11 4,40 0,50l0 1 -1 1c-8,2 -25,8 -41,26 -15,18 -30,48 -32,99l0 5 -3 -3c-8,-8 -16,-21 -24,-33 -11,-16 -21,-31 -26,-33l0 0c-6,-2 -9,2 -11,4 2,2 5,8 7,20 1,5 3,10 4,15 3,12 6,23 6,38 0,19 1,29 2,40l1 2c1,8 18,12 29,14 4,1 6,1 8,2l0 0c3,1 7,3 11,5 4,3 7,6 10,11l0 0c3,5 12,19 22,31 7,8 14,16 19,20l0 0c4,2 7,5 11,8 8,8 17,15 27,17l0 0c5,2 9,3 13,4 4,2 7,2 8,1l0 0c3,-3 1,-15 1,-15l4 -2c0,0 21,18 32,19 5,0 9,0 12,-1 2,-2 3,-4 3,-9 0,-5 -5,-20 -12,-38 -8,-19 -18,-40 -23,-50l-1 -1c-1,-22 1,-55 2,-66 -6,3 -19,9 -21,13l-4 0c-2,-24 3,-34 3,-34l0 -1c0,0 60,-44 62,-70l0 -2 2 0c10,-1 38,0 62,5 15,3 29,7 34,13 8,7 15,14 22,20 7,7 14,12 21,15l0 0c10,6 14,1 16,-1l-8 -19 3 0c0,0 28,2 45,11l0 0c3,1 5,3 7,4 13,7 23,13 31,13 5,0 18,-7 29,-16 10,-7 20,-16 20,-20 0,0 0,-1 0,-1 1,-3 -2,-5 -5,-7 -3,-2 -8,-3 -12,-4 -2,0 -3,0 -4,0l-1 -4c7,-4 13,-9 18,-14 5,-5 9,-10 11,-16 1,-2 1,-3 1,-4 4,-12 8,-26 27,-40 3,-7 4,-12 3,-14 0,-2 -4,-2 -11,-1 -9,3 -24,9 -40,17 -13,7 -26,14 -34,21l-1 1c-18,15 -38,31 -54,33l0 0c-18,3 -44,-3 -44,-3l0 -4c0,0 26,-14 30,-22 -8,-8 -11,-9 -23,-9l-4 0c-8,-1 -14,0 -20,2 -6,1 -11,4 -16,7l0 0c-9,4 -24,2 -39,0 -6,-1 -13,-2 -18,-3 -8,0 -20,-2 -32,-4 -13,-2 -28,-4 -37,-4 -16,0 -36,-1 -36,-1l-1 0 -1 -1c0,0 -12,-19 -39,-38zm-3 48c3,-13 -2,-52 -2,-52l2 0 1 -2 1 0 0 0c27,18 40,37 43,41 4,0 21,1 35,1 10,0 24,2 38,4 12,2 23,4 31,4 6,1 12,2 19,3 14,2 28,4 36,0 6,-3 11,-5 17,-7 6,-2 13,-3 21,-2l4 0c14,0 17,1 27,11l1 1 -1 1c-2,8 -19,18 -27,23 8,1 24,4 36,2 16,-2 34,-18 52,-32l1 -1c9,-7 22,-15 36,-22 15,-8 31,-14 40,-17l0 0c9,-2 14,-1 16,3 2,4 0,10 -4,18l0 1c-18,14 -22,27 -26,39l-1 3c-2,6 -6,12 -12,18 -4,4 -9,8 -15,12 5,0 9,2 13,4 5,2 8,6 7,11 0,0 0,0 0,0l0 0c-1,6 -11,15 -22,24 -11,8 -25,16 -31,16 -10,0 -20,-6 -33,-14 -2,-1 -5,-2 -7,-3 -13,-7 -32,-10 -40,-11l6 15 0 1c0,0 -6,12 -22,4 -7,-4 -14,-9 -22,-15 -7,-7 -14,-14 -21,-21l-1 0c-5,-6 -17,-10 -32,-12 -22,-4 -48,-6 -59,-5 -4,27 -57,67 -63,71 -1,2 -3,10 -2,27 7,-7 22,-13 22,-13l3 -1 0 3c0,0 -3,42 -2,68 6,10 16,31 23,51 8,17 13,34 13,39 0,7 -2,10 -5,12 -4,2 -8,2 -14,2l0 0c-10,-1 -25,-11 -31,-17 0,5 0,11 -3,14l0 0c-3,3 -6,2 -13,0 -3,-1 -7,-3 -12,-4 -11,-2 -20,-10 -29,-18 -4,-3 -7,-6 -10,-8 -5,-4 -13,-12 -20,-21 -10,-12 -20,-26 -23,-31 -2,-4 -5,-7 -8,-9 -4,-3 -7,-4 -10,-5 -2,-1 -5,-1 -8,-2 -12,-3 -31,-7 -32,-17l-1 -3c-1,-11 -2,-21 -2,-40 0,-14 -3,-26 -6,-37 -1,-5 -3,-10 -4,-15 -3,-17 -6,-19 -6,-19l-2 -1 1 -2c0,0 5,-10 17,-6 6,2 16,17 27,33 7,11 14,22 20,29 3,-49 18,-79 33,-97 16,-18 33,-24 42,-27z"/>
   <path fill="black" fill-rule="nonzero" d="M498 329c0,1 19,24 23,32l1 1c2,4 3,5 3,9 0,2 1,6 1,13 0,3 0,6 0,9l0 7c1,23 1,46 -5,59 -2,5 -4,12 -5,19 -2,10 -2,20 -2,26l-4 0c0,-6 0,-17 2,-27 1,-7 3,-14 6,-20 5,-12 5,-34 4,-57l0 -7c0,-3 0,-6 0,-9 0,-7 -1,-10 -1,-13 0,-2 -1,-4 -3,-7l0 -1c-5,-8 -23,-31 -23,-31l3 -3z"/>
   <polygon fill="black" fill-rule="nonzero" points="422,502 438,529 434,531 418,504 "/>
   <path fill="#070500" fill-rule="nonzero" d="M470 510c-1,-1 -22,-34 -10,-60l0 0c5,-12 13,-24 19,-35 7,-12 14,-22 14,-28 1,-10 2,-17 2,-17l4 1c0,0 -1,6 -2,17l0 0c-1,6 -7,17 -15,29 -6,11 -13,23 -18,34 -11,25 9,56 9,56l-3 3z"/>
   <path fill="#070500" fill-rule="nonzero" d="M476 497c0,0 -20,-13 -21,-24l4 0c1,9 20,20 20,21l-3 3z"/>
   <polygon fill="#070500" fill-rule="nonzero" points="476,483 458,461 462,458 479,481 "/>
   <polygon fill="#070500" fill-rule="nonzero" points="482,471 463,449 466,446 485,468 "/>
   <polygon fill="#070500" fill-rule="nonzero" points="486,459 469,436 472,434 489,456 "/>
   <polygon fill="#070500" fill-rule="nonzero" points="489,444 473,424 476,421 492,442 "/>
   <polygon fill="#070500" fill-rule="nonzero" points="494,432 480,417 483,415 497,430 "/>
   <polygon fill="#070500" fill-rule="nonzero" points="496,421 487,408 490,405 499,418 "/>
   <polygon fill="#070500" fill-rule="nonzero" points="503,409 492,400 495,397 505,406 "/>
   <polygon fill="#070500" fill-rule="nonzero" points="509,398 496,388 498,385 511,394 "/>
   <polygon fill="#070500" fill-rule="nonzero" points="511,375 498,375 498,371 511,371 "/>
   <polygon fill="#070500" fill-rule="nonzero" points="507,364 497,363 498,359 507,360 "/>
   <path fill="#050500" fill-rule="nonzero" d="M536 446c0,0 16,-32 55,-33l0 4c-37,1 -52,31 -52,31l-3 -2z"/>
   <polygon fill="#050500" fill-rule="nonzero" points="538,455 559,455 559,459 538,459 "/>
   <polygon fill="#050500" fill-rule="nonzero" points="537,445 561,446 561,450 537,449 "/>
   <polygon fill="#050500" fill-rule="nonzero" points="544,436 569,437 569,441 544,440 "/>
   <polygon fill="#050500" fill-rule="nonzero" points="556,427 576,428 576,432 555,431 "/>
   <polygon fill="#050500" fill-rule="nonzero" points="566,418 586,418 586,422 566,422 "/>
   <polygon fill="#050500" fill-rule="nonzero" points="453,619 447,582 451,581 457,618 "/>
   <polygon fill="#050500" fill-rule="nonzero" points="443,606 438,584 442,583 447,605 "/>
   <polygon fill="#050500" fill-rule="nonzero" points="378,555 414,559 413,563 377,559 "/>
   <polygon fill="#050500" fill-rule="nonzero" points="373,543 399,545 399,549 373,547 "/>
   <polygon fill="#050500" fill-rule="nonzero" points="375,532 393,535 392,539 375,536 "/>
   <polygon fill="#050500" fill-rule="nonzero" points="374,522 388,522 388,526 374,526 "/>
   <polygon fill="#050500" fill-rule="nonzero" points="374,513 387,514 387,518 374,517 "/>
   <polygon fill="#050500" fill-rule="nonzero" points="372,503 383,503 383,507 372,507 "/>
   <polygon fill="#050500" fill-rule="nonzero" points="371,495 379,495 379,499 371,499 "/>
   <polygon fill="#050500" fill-rule="nonzero" points="371,487 378,487 378,491 371,491 "/>
   <polygon fill="#050500" fill-rule="nonzero" points="367,479 372,479 372,483 367,483 "/>
   <path fill="#050500" fill-rule="nonzero" d="M539 629c0,5 -4,8 -8,8 -5,0 -9,-3 -9,-8 0,-4 4,-8 9,-8 4,0 8,4 8,8z"/>
   <polygon fill="#050500" fill-rule="nonzero" points="537,656 490,627 492,624 539,653 "/>
   <polygon fill="#050500" fill-rule="nonzero" points="494,624 524,657 521,659 491,627 "/>
   <path fill="#050500" fill-rule="nonzero" d="M524 657c0,0 5,4 9,2l0 0c4,-2 4,-4 4,-4l4 1c0,0 -1,4 -7,7 -6,3 -13,-4 -13,-4l3 -2z"/>
   <path fill="#070500" fill-rule="nonzero" d="M535 549c0,0 -10,-17 -10,-31 0,-13 6,-37 6,-38 0,-2 4,-28 5,-49l0 0c0,-6 0,-12 1,-18 0,-17 1,-35 0,-42 -1,-5 1,-6 1,-6l-3 -3c0,0 4,-5 6,9l0 0c1,7 0,25 0,42 -1,6 -1,12 -1,18 -1,22 -5,49 -5,49l0 1c0,0 -6,24 -6,37 0,13 9,29 9,29l-3 2z"/>
   <polygon fill="#050500" fill-rule="nonzero" points="718,447 745,450 745,454 718,451 "/>
   <polygon fill="#050500" fill-rule="nonzero" points="727,456 751,459 750,463 727,460 "/>
   <polygon fill="#050500" fill-rule="nonzero" points="793,452 833,455 833,459 793,456 "/>
   <polygon fill="#050500" fill-rule="nonzero" points="796,444 844,444 844,448 796,448 "/>
   <polygon fill="#050500" fill-rule="nonzero" points="813,434 851,432 851,436 813,438 "/>
   <polygon fill="#050500" fill-rule="nonzero" points="821,425 850,423 850,427 821,429 "/>
   <polygon fill="#050500" fill-rule="nonzero" points="832,416 857,413 857,417 833,420 "/>
   <polygon fill="#050500" fill-rule="nonzero" points="845,404 864,404 864,408 845,408 "/>
   <polygon fill="#050500" fill-rule="nonzero" points="852,396 873,396 873,400 852,400 "/>
   <polygon fill="#050500" fill-rule="nonzero" points="858,388 878,388 878,392 858,392 "/>
   <polygon fill="#050500" fill-rule="nonzero" points="866,377 883,376 883,380 866,381 "/>
   <polygon fill="#050500" fill-rule="nonzero" points="876,369 890,369 890,373 876,373 "/>
   <polygon fill="#050500" fill-rule="nonzero" points="886,360 898,360 898,364 886,364 "/>
   <polygon fill="#050500" fill-rule="nonzero" points="891,352 908,352 908,356 891,356 "/>
   <polygon fill="#050500" fill-rule="nonzero" points="734,384 757,383 757,387 734,388 "/>
   <path fill="#FFF200" fill-rule="nonzero" d="M687 590c0,0 8,-9 15,-9 6,0 55,17 68,19 14,2 37,5 51,5 14,0 47,24 55,32 7,7 28,35 28,35l31 3c0,0 10,13 8,21 -1,7 -1,16 -1,16 0,0 13,15 8,23 -5,7 -15,3 -15,3 0,0 0,60 -18,95 -18,35 -62,82 -103,86 -13,-7 -20,-24 -40,-21 9,2 31,6 29,21 -2,14 -17,30 -25,31 -9,1 -32,9 -32,9l20 5c0,0 17,-3 21,1 4,4 5,18 -2,20 -7,2 -21,12 -21,12 0,0 -10,-6 -16,-11 -6,-5 -22,-11 -28,-13 -7,-3 -10,-14 -5,-20 6,-5 30,-17 30,-17 0,0 -34,3 -42,0 -9,-4 4,0 -22,-12 -27,-12 -85,-18 -105,-21 -20,-3 -59,-19 -93,-14 -34,5 -65,19 -82,37 -17,18 -29,48 -29,48 0,0 -1,-49 6,-55 8,-7 12,-21 12,-21l15 -12 10 -16 16 -10 19 -13 24 -2 12 -11 23 0 23 -5 21 4 27 -5 21 3 27 1 36 -5c0,0 5,-3 24,-3 19,0 39,1 46,1 8,0 22,-7 23,3 1,9 1,9 1,9 0,0 45,-19 60,-41 15,-22 17,-42 17,-42 0,0 -8,28 -19,28 -12,0 -26,-23 -30,-31 -4,-9 0,-20 -13,-20 -12,0 -19,-15 -11,-19 7,-5 23,-6 27,-3 5,2 13,15 18,22 6,6 1,19 1,19 0,0 7,-26 12,-36 5,-11 23,-16 23,-16 0,0 -15,1 -19,-6 -4,-8 -4,-15 -4,-15 0,0 -32,5 -39,4 -8,-1 -59,-16 -71,-24 -12,-9 -17,-20 -17,-20l22 6c0,0 21,6 31,7 10,1 43,1 43,1 0,0 -4,-11 -18,-20 -13,-8 -77,-32 -84,-41l0 0z"/>
   <path fill="black" fill-rule="nonzero" d="M685 589c0,0 9,-10 17,-10 3,0 16,4 31,8 15,5 31,10 38,11l0 0c7,1 18,2 29,3 8,1 15,2 21,2 6,0 15,4 24,9 14,8 28,19 32,23l0 0c7,7 25,30 28,35l31 3 1 0c0,0 10,15 8,23 0,6 -1,13 -1,15 3,3 13,17 8,25l0 0c-5,6 -11,6 -15,5 0,12 -2,62 -18,93 -10,19 -28,43 -50,60 -17,15 -36,25 -55,27l-1 -1c-3,-1 -6,-3 -8,-5 0,1 0,3 0,4 -1,7 -5,15 -10,21 -5,7 -12,12 -17,12l0 0c-5,1 -17,4 -25,7l13 3c3,-1 18,-3 23,2 1,1 2,3 3,6 0,2 1,5 0,8 0,3 -1,5 -3,7 -1,1 -2,2 -3,2 -7,2 -21,11 -21,11l-1 1 -1 0c0,0 -10,-6 -16,-11 -3,-2 -7,-5 -11,-7 -6,-3 -13,-5 -17,-7l0 0c-1,0 -3,-1 -4,-2 -2,-2 -3,-5 -4,-7 -1,-3 -1,-6 0,-9 1,-1 2,-3 3,-4 3,-3 14,-9 22,-14 -11,1 -28,2 -34,-1l0 0c-4,-1 -4,-1 -5,-2 0,-1 -1,-2 -17,-9l0 0c-22,-10 -66,-16 -91,-19 -6,-1 -10,-2 -13,-2l0 0c-6,-1 -13,-3 -21,-5 -21,-6 -48,-13 -72,-9 -17,3 -33,7 -47,14 -14,6 -26,14 -34,22 -16,18 -28,47 -28,47l-4 0c0,-1 -1,-50 7,-57 7,-6 11,-20 11,-20l1 -1 14 -11 11 -16 0 -1 16 -10 0 0 19 -13 1 0 24 -2 11 -10 1 -1 23 0 22 -5 1 0 21 4 27 -5 0 0 22 3 26 1 35 -5c2,-1 8,-3 25,-3 11,0 24,0 33,0 6,0 10,1 13,1 2,0 5,-1 7,-1 2,-1 4,-1 6,-1 6,-1 11,0 12,7l0 6c10,-4 45,-20 57,-39 4,-5 7,-11 9,-16 -3,3 -6,5 -9,5 -5,0 -11,-3 -16,-9 -7,-7 -13,-18 -16,-23l0 0c-1,-3 -2,-7 -2,-10 -1,-5 -2,-9 -9,-9 -5,0 -9,-2 -12,-5 -1,-2 -3,-4 -4,-6 0,-3 -1,-5 0,-7 0,-2 2,-4 4,-5 4,-2 9,-4 15,-4 6,-1 12,-1 14,1 3,1 8,8 13,14 2,3 4,6 6,8 1,1 1,3 2,4 2,-7 5,-15 7,-20 3,-6 10,-11 16,-14 -4,0 -9,-2 -12,-6l0 0c-3,-6 -4,-11 -4,-14 -7,1 -31,5 -37,4l-1 0c-4,-1 -26,-7 -44,-13 -12,-4 -22,-8 -27,-12 -12,-8 -18,-21 -18,-21l-1 -4c4,2 24,8 26,8 0,0 21,6 30,7 8,1 32,1 40,1 -2,-3 -7,-10 -16,-16 -5,-3 -19,-9 -34,-16 -21,-9 -44,-19 -50,-25l-3 0 2 -3zm17 -6c-4,0 -10,5 -12,7 6,5 28,15 48,24 15,6 29,12 34,16l0 0c15,8 19,21 19,21l1 2 -3 0c0,0 -34,0 -43,-1 -10,-1 -31,-7 -31,-7l-18 -5c3,4 7,10 14,15 5,3 15,7 26,11 19,7 40,12 44,13 7,1 38,-4 39,-4l2 -1 0 3c0,0 0,7 4,14 3,6 17,5 17,5l1 4c0,0 -17,5 -22,15 -4,8 -9,25 -11,32 0,2 -1,3 -1,3l-4 -1c0,0 1,-1 1,-4 1,-3 2,-10 -1,-13 -2,-2 -4,-5 -7,-9 -4,-5 -8,-12 -11,-13l0 0c-2,-1 -7,-1 -12,0 -5,0 -10,1 -13,3l0 0c-1,1 -2,2 -2,3 0,1 0,3 0,4 1,2 2,4 3,5 2,2 6,4 9,4 11,0 12,6 13,13 0,2 1,5 2,8l0 0c2,5 8,15 15,23 4,4 9,7 13,7 10,0 17,-27 17,-27l4 1c0,0 -2,21 -18,43 -15,23 -60,42 -61,42l-2 1 -1 -12c-1,-3 -4,-4 -8,-3 -1,0 -3,0 -5,1 -3,0 -5,1 -8,1 -2,0 -7,-1 -13,-1 -9,0 -21,0 -33,0 -19,0 -23,3 -23,3l-1 0 -36 5 0 0 -27 -1 0 0 -21 -3 -27 5 -1 0 -20 -4 -22 5 -1 0 -22 0 -11 10 -1 1 -24 2 -19 12 0 0 -15 11 -10 15 -1 1 -14 11c-1,3 -5,15 -12,21l0 0c-5,4 -6,30 -6,44 5,-10 14,-27 25,-39 9,-9 21,-17 35,-24 15,-6 31,-11 49,-14 25,-4 52,3 73,9 8,2 15,4 20,5 4,0 8,1 13,2 26,3 70,9 92,19 17,8 19,9 20,10 0,1 0,1 2,2 8,3 42,0 42,0l1 3c0,0 -24,13 -29,18 -1,1 -1,1 -2,2 0,2 0,5 0,7 1,2 2,4 3,5 1,1 1,1 2,2 4,1 11,4 18,7 4,2 9,4 11,7 5,4 12,8 15,9 3,-2 14,-9 21,-11 0,0 1,0 1,-1l0 0c1,-1 2,-3 2,-5 1,-2 0,-4 0,-6 -1,-2 -1,-4 -2,-4l0 -1c-4,-3 -20,0 -20,0l-1 0 -19 -5 -1 -4c0,0 24,-8 32,-9 4,0 10,-5 15,-11 4,-5 8,-12 9,-19l0 0c2,-12 -17,-16 -25,-18l-2 0 0 -4c14,-2 22,5 29,12 4,3 7,7 11,9 18,-2 36,-12 53,-26 21,-17 38,-40 48,-59 18,-34 18,-94 18,-94l0 -3 3 1c0,0 8,4 12,-2 5,-6 -7,-21 -7,-21l-1 -1c0,0 0,-9 1,-17l0 0c1,-5 -5,-16 -7,-18l-31 -4 0 0c0,0 -21,-28 -29,-35 -4,-4 -18,-15 -31,-22 -9,-5 -17,-9 -22,-9 -6,0 -14,-1 -22,-1 -10,-2 -21,-3 -29,-4 -7,-1 -23,-6 -38,-11 -14,-4 -28,-8 -30,-8z"/>
   <polygon fill="#050500" fill-rule="nonzero" points="803,634 820,634 820,638 803,638 "/>
   <polygon fill="#050500" fill-rule="nonzero" points="821,634 836,644 834,648 819,637 "/>
   <polygon fill="#050500" fill-rule="nonzero" points="844,661 859,661 859,665 844,665 "/>
   <polygon fill="#050500" fill-rule="nonzero" points="860,653 860,639 864,639 864,653 "/>
   <polygon fill="#050500" fill-rule="nonzero" points="773,612 753,608 754,604 774,608 "/>
   <polygon fill="#050500" fill-rule="nonzero" points="906,670 928,703 925,705 903,673 "/>
   <polygon fill="#050500" fill-rule="nonzero" points="929,704 937,738 933,739 925,705 "/>
   <polygon fill="#050500" fill-rule="nonzero" points="911,706 917,721 913,723 907,707 "/>
   <polygon fill="#050500" fill-rule="nonzero" points="913,733 913,743 909,743 909,733 "/>
   <polygon fill="#050500" fill-rule="nonzero" points="906,751 906,771 902,771 902,751 "/>
   <polygon fill="#050500" fill-rule="nonzero" points="899,780 895,795 891,794 895,779 "/>
   <polygon fill="#050500" fill-rule="nonzero" points="887,805 880,819 876,817 884,804 "/>
   <polygon fill="#050500" fill-rule="nonzero" points="872,826 856,842 853,839 869,823 "/>
   <polygon fill="#050500" fill-rule="nonzero" points="842,846 831,859 828,856 839,843 "/>
   <polygon fill="#050500" fill-rule="nonzero" points="818,869 802,878 800,875 816,865 "/>
   <polygon fill="#050500" fill-rule="nonzero" points="856,704 859,734 855,734 852,704 "/>
   <polygon fill="#050500" fill-rule="nonzero" points="856,746 849,759 846,757 852,745 "/>
   <polygon fill="#050500" fill-rule="nonzero" points="832,768 846,765 847,768 833,772 "/>
   <polygon fill="#050500" fill-rule="nonzero" points="826,789 836,785 838,788 827,793 "/>
   <polygon fill="#050500" fill-rule="nonzero" points="860,770 857,779 853,778 856,769 "/>
   <polygon fill="#050500" fill-rule="nonzero" points="870,741 869,758 865,758 866,741 "/>
   <polygon fill="#050500" fill-rule="nonzero" points="875,722 875,734 871,734 871,722 "/>
   <polygon fill="#050500" fill-rule="nonzero" points="871,701 877,713 873,715 868,703 "/>
   <polygon fill="#050500" fill-rule="nonzero" points="891,701 898,716 894,718 888,703 "/>
   <polygon fill="#050500" fill-rule="nonzero" points="894,730 894,745 890,745 890,730 "/>
   <polygon fill="#050500" fill-rule="nonzero" points="889,758 883,770 879,768 886,756 "/>
   <polygon fill="#050500" fill-rule="nonzero" points="879,777 873,786 870,783 875,775 "/>
   <polygon fill="#050500" fill-rule="nonzero" points="872,793 862,808 858,806 869,791 "/>
   <polygon fill="#050500" fill-rule="nonzero" points="852,816 844,831 840,829 849,814 "/>
   <polygon fill="#050500" fill-rule="nonzero" points="833,836 820,849 817,847 830,833 "/>
   <polygon fill="#050500" fill-rule="nonzero" points="805,856 793,865 790,862 803,853 "/>
   <polygon fill="#050500" fill-rule="nonzero" points="776,874 744,880 743,876 775,870 "/>
   <polygon fill="#050500" fill-rule="nonzero" points="767,854 741,868 739,864 765,850 "/>
   <polygon fill="#050500" fill-rule="nonzero" points="740,868 701,869 700,865 740,864 "/>
   <polygon fill="#050500" fill-rule="nonzero" points="780,847 791,836 794,839 783,849 "/>
   <polygon fill="#050500" fill-rule="nonzero" points="810,886 828,880 829,884 811,890 "/>
   <polygon fill="#050500" fill-rule="nonzero" points="818,898 835,897 835,901 818,902 "/>
   <polygon fill="#050500" fill-rule="nonzero" points="738,893 793,888 794,892 739,897 "/>
   <polygon fill="#050500" fill-rule="nonzero" points="724,879 731,884 729,888 722,882 "/>
   <polygon fill="#050500" fill-rule="nonzero" points="695,901 712,917 710,920 692,904 "/>
   <polygon fill="#050500" fill-rule="nonzero" points="838,872 853,860 855,863 840,875 "/>
   <polygon fill="#050500" fill-rule="nonzero" points="866,849 882,834 885,837 869,851 "/>
   <polygon fill="#050500" fill-rule="nonzero" points="894,824 899,811 903,813 898,825 "/>
   <polygon fill="#050500" fill-rule="nonzero" points="907,795 909,783 913,784 911,795 "/>
   <polygon fill="#050500" fill-rule="nonzero" points="916,773 917,761 921,761 920,773 "/>
   <polygon fill="#050500" fill-rule="nonzero" points="918,745 918,733 922,733 922,745 "/>
   <polygon fill="#050500" fill-rule="nonzero" points="890,852 876,868 873,866 887,850 "/>
   <polygon fill="#050500" fill-rule="nonzero" points="867,880 845,895 843,892 865,877 "/>
   <polygon fill="#050500" fill-rule="nonzero" points="867,676 869,686 865,687 863,677 "/>
   <polygon fill="#050500" fill-rule="nonzero" points="885,676 885,687 881,687 881,676 "/>
   <polygon fill="#050500" fill-rule="nonzero" points="896,675 901,687 897,688 892,677 "/>
   <polygon fill="#050500" fill-rule="nonzero" points="681,838 707,842 707,846 680,842 "/>
   <polygon fill="#050500" fill-rule="nonzero" points="706,842 731,822 733,825 708,845 "/>
   <polygon fill="#050500" fill-rule="nonzero" points="711,837 758,835 758,839 711,841 "/>
   <polygon fill="#050500" fill-rule="nonzero" points="383,911 397,911 397,915 383,915 "/>
   <polygon fill="#050500" fill-rule="nonzero" points="377,925 390,925 390,929 377,929 "/>
   <polygon fill="#050500" fill-rule="nonzero" points="405,899 405,911 401,911 401,899 "/>
   <polygon fill="#050500" fill-rule="nonzero" points="416,889 415,901 411,900 412,889 "/>
   <polygon fill="#050500" fill-rule="nonzero" points="428,880 429,893 425,893 424,881 "/>
   <polygon fill="#050500" fill-rule="nonzero" points="444,871 443,884 439,884 440,871 "/>
   <polygon fill="#050500" fill-rule="nonzero" points="462,866 455,881 452,880 458,864 "/>
   <polygon fill="#050500" fill-rule="nonzero" points="476,860 471,874 467,872 473,859 "/>
   <polygon fill="#050500" fill-rule="nonzero" points="492,852 489,871 485,871 488,852 "/>
   <polygon fill="#050500" fill-rule="nonzero" points="507,853 507,869 503,869 503,853 "/>
   <polygon fill="#050500" fill-rule="nonzero" points="523,848 523,869 519,869 519,848 "/>
   <polygon fill="#050500" fill-rule="nonzero" points="539,849 539,870 535,870 535,849 "/>
   <polygon fill="#050500" fill-rule="nonzero" points="559,850 559,874 555,874 555,850 "/>
   <polygon fill="#050500" fill-rule="nonzero" points="574,851 575,874 571,874 570,851 "/>
   <polygon fill="#050500" fill-rule="nonzero" points="570,831 565,842 561,841 567,829 "/>
   <polygon fill="#050500" fill-rule="nonzero" points="546,834 545,842 541,841 542,834 "/>
   <polygon fill="#050500" fill-rule="nonzero" points="522,834 522,840 518,840 518,834 "/>
   <polygon fill="#050500" fill-rule="nonzero" points="497,837 499,844 495,845 493,838 "/>
   <polygon fill="#050500" fill-rule="nonzero" points="477,845 477,850 472,850 472,845 "/>
   <polygon fill="#050500" fill-rule="nonzero" points="455,849 458,858 454,859 452,849 "/>
   <polygon fill="#050500" fill-rule="nonzero" points="433,859 434,870 430,870 429,860 "/>
   <polygon fill="#050500" fill-rule="nonzero" points="419,873 419,881 414,881 414,873 "/>
   <path fill="#050500" fill-rule="nonzero" d="M814 620c0,3 -6,5 -13,5 -6,0 -12,-2 -12,-5 0,-3 6,-6 12,-6 7,0 13,3 13,6z"/>
   <polygon fill="black" fill-rule="nonzero" points="851,792 842,804 839,802 848,790 "/>
   <polygon fill="black" fill-rule="nonzero" points="831,814 825,818 823,815 829,810 "/>
   <polygon fill="black" fill-rule="nonzero" points="811,827 802,832 800,828 809,824 "/>
   <polygon fill="white" fill-rule="nonzero" points="832,1056 801,1054 782,1043 741,1042 736,1031 714,1028 693,979 687,976 687,961 683,961 683,908 679,909 667,308 667,293 663,291 662,256 647,228 638,150 638,148 638,149 638,148 638,150 629,228 615,256 613,291 610,293 610,308 597,909 594,908 594,961 590,961 590,976 584,979 563,1028 541,1031 535,1042 495,1043 476,1054 444,1056 436,1066 841,1066 "/>
   <path fill="black" fill-rule="nonzero" d="M832 1058l-31 -2 -1 0 -19 -11 -41 -1 -6 -11 -22 -3 -21 -50 -6 -3 0 -14 -4 0 0 -53 -4 1c-4,-203 -14,-414 -12,-617l-4 -2 -1 -36 -15 -27 0 -1 -7 -61 -7 61 0 1 -14 27 -2 36 -3 2c1,203 -9,414 -13,617l-3 -1 0 53 -4 0 0 14 -7 3 -21 50 -22 3 -5 11 -42 1 -18 11 -1 0 -31 2 -5 6 396 0 -4 -6zm-31 -6l32 2 12 14 -414 0 12 -14 32 -2 19 -11 1 0 39 -1 5 -11 22 -3 21 -48 1 -1 5 -2 0 -16 3 0 0 -54 4 1 13 -598 -1 -16 4 -2 1 -34 1 -1 14 -28 9 -77 0 -2 0 0 0 0 2 0 2 0 0 0 0 0 0 2 9 77 15 28 0 1 1 34 4 2 0 16 12 598 4 0 0 53 4 0 0 16 5 2 1 1 20 48 22 3 5 11 40 1 1 0 18 11z"/>
   <polygon fill="white" fill-rule="nonzero" points="629,227 647,227 "/>
   <polygon fill="black" fill-rule="nonzero" points="629,225 647,225 647,229 629,229 "/>
   <polygon fill="white" fill-rule="nonzero" points="615,280 638,247 "/>
   <polygon fill="black" fill-rule="nonzero" points="613,279 637,246 640,249 616,281 "/>
   <polygon fill="white" fill-rule="nonzero" points="638,247 661,282 "/>
   <polygon fill="black" fill-rule="nonzero" points="640,246 663,280 660,283 637,248 "/>
   <polygon fill="white" fill-rule="nonzero" points="614,292 663,292 "/>
   <polygon fill="black" fill-rule="nonzero" points="614,290 663,290 663,294 614,294 "/>
   <polygon fill="white" fill-rule="nonzero" points="611,304 666,304 "/>
   <polygon fill="black" fill-rule="nonzero" points="611,302 666,302 666,306 611,306 "/>
   <polygon fill="white" fill-rule="nonzero" points="559,1028 715,1028 "/>
   <polygon fill="black" fill-rule="nonzero" points="559,1026 715,1026 715,1030 559,1030 "/>
   <polygon fill="white" fill-rule="nonzero" points="533,1043 747,1043 "/>
   <polygon fill="black" fill-rule="nonzero" points="533,1041 747,1041 747,1045 533,1045 "/>
   <polygon fill="white" fill-rule="nonzero" points="590,976 687,976 "/>
   <polygon fill="black" fill-rule="nonzero" points="590,974 687,974 687,978 590,978 "/>
   <polygon fill="white" fill-rule="nonzero" points="592,961 685,961 "/>
   <polygon fill="black" fill-rule="nonzero" points="592,959 685,959 685,963 592,963 "/>
   <polygon fill="white" fill-rule="nonzero" points="603,978 588,1027 "/>
   <polygon fill="black" fill-rule="nonzero" points="605,979 590,1028 586,1027 602,978 "/>
   <polygon fill="white" fill-rule="nonzero" points="626,976 624,1027 "/>
   <polygon fill="black" fill-rule="nonzero" points="628,976 626,1027 622,1027 623,976 "/>
   <polygon fill="white" fill-rule="nonzero" points="654,976 657,1028 "/>
   <polygon fill="black" fill-rule="nonzero" points="656,976 659,1028 655,1028 652,976 "/>
   <polygon fill="white" fill-rule="nonzero" points="672,976 694,1030 "/>
   <polygon fill="black" fill-rule="nonzero" points="674,975 695,1029 692,1030 670,977 "/>
   <polygon fill="white" fill-rule="nonzero" points="593,907 611,930 "/>
   <polygon fill="black" fill-rule="nonzero" points="595,906 613,929 609,932 592,908 "/>
   <polygon fill="white" fill-rule="nonzero" points="611,930 628,908 "/>
   <polygon fill="black" fill-rule="nonzero" points="609,929 626,907 629,910 613,932 "/>
   <polygon fill="white" fill-rule="nonzero" points="628,908 641,932 "/>
   <polygon fill="black" fill-rule="nonzero" points="629,907 643,931 639,933 626,909 "/>
   <polygon fill="white" fill-rule="nonzero" points="641,932 654,907 "/>
   <polygon fill="black" fill-rule="nonzero" points="639,931 652,906 656,908 643,933 "/>
   <polygon fill="white" fill-rule="nonzero" points="654,907 668,933 "/>
   <polygon fill="black" fill-rule="nonzero" points="656,906 670,932 666,934 652,908 "/>
   <polygon fill="white" fill-rule="nonzero" points="668,933 679,909 "/>
   <polygon fill="black" fill-rule="nonzero" points="666,932 677,908 681,910 670,934 "/>
   <polygon fill="white" fill-rule="nonzero" points="611,317 628,337 "/>
   <polygon fill="black" fill-rule="nonzero" points="613,316 630,336 627,339 610,318 "/>
   <polygon fill="white" fill-rule="nonzero" points="628,337 637,315 "/>
   <polygon fill="black" fill-rule="nonzero" points="626,337 635,314 639,316 630,338 "/>
   <polygon fill="white" fill-rule="nonzero" points="637,315 651,339 "/>
   <polygon fill="black" fill-rule="nonzero" points="639,314 653,338 649,340 636,316 "/>
   <polygon fill="white" fill-rule="nonzero" points="651,339 666,316 "/>
   <polygon fill="black" fill-rule="nonzero" points="649,338 664,315 667,317 653,340 "/>
   <polygon fill="white" fill-rule="nonzero" points="611,317 606,926 "/>
   <polygon fill="black" fill-rule="nonzero" points="613,317 608,926 604,926 609,317 "/>
   <polygon fill="white" fill-rule="nonzero" points="666,316 672,925 "/>
   <polygon fill="black" fill-rule="nonzero" points="668,316 674,925 670,925 664,316 "/>
   <polygon fill="white" fill-rule="nonzero" points="623,911 625,334 "/>
   <polygon fill="black" fill-rule="nonzero" points="621,911 623,334 627,334 625,911 "/>
   <polygon fill="white" fill-rule="nonzero" points="628,331 633,911 "/>
   <polygon fill="black" fill-rule="nonzero" points="630,331 635,911 631,911 626,331 "/>
   <polygon fill="white" fill-rule="nonzero" points="644,913 646,334 "/>
   <polygon fill="black" fill-rule="nonzero" points="642,913 644,334 648,334 646,913 "/>
   <polygon fill="white" fill-rule="nonzero" points="651,333 657,909 "/>
   <polygon fill="black" fill-rule="nonzero" points="653,333 659,909 655,909 649,333 "/>
  </g>
  <rect fill="none" width="1277" height="1277"/>
 </g>
</svg>
